<?xml version="1.0" encoding="UTF-8"?><svg id="b" xmlns="http://www.w3.org/2000/svg" viewBox="0 0 313.2 121.1"><g id="c"><g id="d"><g id="e"><path d="m0,88.5h7.7l9.8,19.5,9.8-19.5h7.5l-17.3,32.6L0,88.5Z" style="fill:#fff; stroke-width:0px;"/><path d="m44.9,88.5h6.9v31.3h-6.9v-31.3Z" style="fill:#fff; stroke-width:0px;"/><path d="m70.6,100.9v18.9h-6.8v-31.3h6.9l11,20,11.2-20h6.7v31.3h-6.8v-18.8l-10.9,19.8-11.1-19.9Z" style="fill:#fff; stroke-width:0px;"/><path d="m110.1,88.5h24.7v6.2h-17.9v6.4h12.5v6h-12.5v6.4h17.9v6.2h-24.7v-31.3Z" style="fill:#fff; stroke-width:0px;"/><path d="m165.8,119.8l-12-13.1v13.1h-6.9v-31.3h14.9c7.2,0,11.8,3.7,11.8,10s-3.7,9.3-10.5,9.5l11.8,11.8h-9.2Zm-12-17.5h8.6c2.6,0,4.3-1.3,4.3-3.9s-1.7-3.8-4.3-3.8h-8.6v7.7Z" style="fill:#fff; stroke-width:0px;"/><path d="m200.8,94.7h-15.4v-6.3h26.7l-16.2,25h16.4v6.3h-27.7l16.1-25Z" style="fill:#fff; stroke-width:0px;"/><path d="m223.9,88.5h6.9v31.3h-6.9v-31.3Z" style="fill:#fff; stroke-width:0px;"/><path d="m241.2,104.1c0-9.1,7.3-16.2,16.8-16.2s16.8,7.1,16.8,16.2-7.3,16.3-16.8,16.3-16.8-7.1-16.8-16.3Zm26.8,0c0-5.8-4.5-9.8-10-9.8s-10,4.1-10,9.8,4.5,9.8,10,9.8,10-4.1,10-9.8h0Z" style="fill:#fff; stroke-width:0px;"/><path d="m283.7,88.5h6.8l15.9,21.2v-21.2h6.8v31.3h-6.7l-15.9-21.1v21.1h-6.9v-31.3Z" style="fill:#fff; stroke-width:0px;"/><polygon points="194.3 17.1 166.5 65.4 156.6 48.3 174.6 17.1 194.3 17.1" style="fill:#fff; stroke-width:0px;"/><polygon points="184.5 0 174.6 17.1 138.6 17.1 128.7 0 184.5 0" style="fill:#fff; stroke-width:0px;"/><polygon points="156.6 48.3 146.7 65.4 118.8 17.1 138.6 17.1 156.6 48.3" style="fill:#fff; stroke-width:0px;"/></g></g></g></svg>