<?xml version="1.0" encoding="utf-8"?>
<!-- Generator: Adobe Illustrator 27.9.1, SVG Export Plug-In . SVG Version: 6.00 Build 0)  -->
<svg version="1.1" id="Capa_1" xmlns="http://www.w3.org/2000/svg" xmlns:xlink="http://www.w3.org/1999/xlink" x="0px" y="0px"
	 viewBox="0 0 1456 363" style="enable-background:new 0 0 1456 363;" xml:space="preserve">
<style type="text/css">
	.st0{fill:#FFFFFF;}
</style>
<polygon class="st0" points="316.3,20.7 200.3,20.7 101.2,119.8 101.2,20.7 9,20.7 9,328 "/>
<polygon class="st0" points="183.1,194.8 125.1,252.8 200.3,328 316.3,328 "/>
<polygon class="st0" points="647.4,328 647.4,212 456,20.7 340.1,20.7 340.1,20.7 340.1,20.7 340.1,328 432.3,235.6 527.4,235.6 
	466.5,174.7 432.3,174.7 432.3,112.9 "/>
<polygon class="st0" points="1182.3,20.7 1098.1,254.2 1013.9,20.7 982.9,20.7 1098.1,328 1213.3,20.7 "/>
<polygon class="st0" points="921.7,20.7 614.4,20.7 614.4,112.9 716.9,112.9 716.9,328 809.1,235.8 809.1,112.9 921.7,112.9 "/>
<path class="st0" d="M1412.6,328h31l-91.9-130.9h2.3c48.7,0,88.2-39.5,88.2-88.2c0-48.7-39.5-88.2-88.2-88.2h-120V328h28.2V197.1
	h58.5L1412.6,328z M1262.2,48.8h91.8c33.2,0,60,26.9,60,60c0,33.2-26.9,60.1-60,60.1h-91.8V48.8z"/>
</svg>
