<?xml version="1.0" encoding="UTF-8"?><svg id="b" xmlns="http://www.w3.org/2000/svg" viewBox="0 0 21.3 19.9"><g id="c"><path d="m2.7,16.6c-.7,0-1.4-.2-1.9-.8s-.8-1.2-.8-1.9v-7.3c0-.7.2-1.3.8-1.9.5-.5,1.2-.8,1.9-.8h6.6c.7,0,1.3.3,1.9.8.5.5.8,1.1.8,1.9v7.3c0,.7-.3,1.4-.8,1.9-.5.5-1.1.8-1.9.8h-1.7l-3.9,3.3h-1.1v-3.3Zm-1.3-2.7c0,.7.6,1.3,1.3,1.3h1.3v2.7l3.1-2.7h2.2c.7,0,1.3-.6,1.3-1.3v-7.3c0-.7-.6-1.3-1.3-1.3H2.7c-.7,0-1.3.6-1.3,1.3v7.3Zm17.3,1.3c.7,0,1.3-.6,1.3-1.3V2.7c0-.7-.6-1.3-1.3-1.3H8c-.7,0-1.3.6-1.3,1.3h-1.3c0-.7.2-1.3.8-1.9.5-.5,1.2-.8,1.9-.8h10.6c.7,0,1.3.3,1.9.8.5.5.8,1.1.8,1.9v11.3c0,.7-.3,1.4-.8,1.9-.5.5-1.1.8-1.9.8v3.3h-1.1l-3.9-3.3h-.4v-1.3h.9l3.1,2.7v-2.7h1.3Z" style="fill:#7831fe; stroke-width:0px;"/></g></svg>