<?xml version="1.0" encoding="UTF-8"?><svg id="b" xmlns="http://www.w3.org/2000/svg" viewBox="0 0 39.8 39.8"><g id="c"><circle cx="19.9" cy="19.9" r="19.9" style="fill:#7831fe; stroke-width:0px;"/><path d="m9.7,30.2l1.5-5.5c-.8-1.5-1.3-3.2-1.3-4.9,0-5.6,4.6-10.1,10.1-10.1s10.1,4.6,10.1,10.1-4.6,10.1-10.1,10.1-3.3-.4-4.8-1.2l-5.5,1.5Zm5.8-3.5l.3.2c1.3.8,2.7,1.2,4.2,1.2,4.5,0,8.2-3.7,8.2-8.2s-3.7-8.2-8.2-8.2-8.2,3.7-8.2,8.2.4,3,1.2,4.3l.2.4-.8,3.1,3.1-.8Z" style="fill:#fff; stroke-width:0px;"/><path d="m23.8,21.2c-.4-.2-1-.5-1.5-.3-.4.2-.6.7-.9,1-.1.2-.3.2-.5.1-1.4-.6-2.5-1.5-3.3-2.8-.1-.2-.1-.4,0-.6.2-.3.5-.6.6-1,0-.4-.1-.8-.3-1.1-.2-.4-.4-1-.8-1.3-.4-.2-.9,0-1.3.2-.6.5-.9,1.3-.9,2,0,.2,0,.4,0,.6.1.5.4,1,.6,1.4.2.3.4.7.6,1,.8,1,1.7,1.9,2.8,2.6.5.3,1.1.6,1.7.8.7.2,1.3.5,2,.3.8-.1,1.5-.6,1.8-1.4,0-.2.1-.5,0-.7-.1-.5-.8-.8-1.1-1Z" style="fill:#fff; fill-rule:evenodd; stroke-width:0px;"/></g></svg>