<?xml version="1.0" encoding="UTF-8"?><svg id="b" xmlns="http://www.w3.org/2000/svg" viewBox="0 0 39.8 39.8"><g id="c"><circle cx="19.9" cy="19.9" r="19.9" style="fill:#7831fe; stroke-width:0px;"/><path d="m25.4,13.2c-.7,0-1.2.5-1.2,1.2s.5,1.2,1.2,1.2,1.2-.5,1.2-1.2-.5-1.2-1.2-1.2Z" style="fill:#fff; stroke-width:0px;"/><path d="m20,14.8c-2.8,0-5.1,2.3-5.1,5.1s2.3,5.1,5.1,5.1,5.1-2.3,5.1-5.1-2.3-5.1-5.1-5.1Zm0,8.4c-1.8,0-3.3-1.5-3.3-3.3s1.5-3.3,3.3-3.3,3.3,1.5,3.3,3.3-1.5,3.3-3.3,3.3Z" style="fill:#fff; stroke-width:0px;"/><path d="m24,30.3h-8.3c-3.4,0-6.2-2.8-6.2-6.2v-8.3c0-3.4,2.8-6.2,6.2-6.2h8.3c3.4,0,6.2,2.8,6.2,6.2v8.3c0,3.4-2.8,6.2-6.2,6.2ZM15.8,11.5c-2.4,0-4.3,1.9-4.3,4.3v8.3c0,2.4,1.9,4.3,4.3,4.3h8.3c2.4,0,4.3-1.9,4.3-4.3v-8.3c0-2.4-1.9-4.3-4.3-4.3h-8.3Z" style="fill:#fff; stroke-width:0px;"/></g></svg>