<?xml version="1.0" encoding="UTF-8"?><svg id="b" xmlns="http://www.w3.org/2000/svg" viewBox="0 0 23.3 23.1"><g id="c"><path d="m0,11.7C0,5.6,4.9.7,11,.7s11,4.9,11,11-4.9,11-11,11S0,17.7,0,11.7Zm4.1,4.8l-.9.6c.7.9,1.5,1.8,2.6,2.5l.6-1,1.2.7-.6,1c1.1.5,2.3.9,3.5,1v-2.7h1.4v2.8c1.2-.2,2.4-.4,3.5-1l-.6-1,1.2-.7.6.9c.9-.7,1.8-1.5,2.5-2.6l-1-.6.7-1.2,1,.6c.5-1.1.9-2.3,1-3.5h-2.7v-1.4h2.8c-.2-1.2-.4-2.4-1-3.5l-1,.6-.7-1.2,1-.6c-.7-.9-1.5-1.8-2.5-2.5l-.6,1-1.2-.7.6-1c-1.1-.5-2.3-.9-3.5-1v2.7h-1.4v-2.8c-1.2.2-2.4.4-3.5,1l.5,1-1.2.7-.6-1c-.9.7-1.8,1.5-2.5,2.5l1.1.6-.7,1.2-1-.6c-.5,1.1-.9,2.3-1,3.5h2.7v1.4H1.4c.2,1.2.4,2.4,1,3.5l1-.6.7,1.2Zm2.6.5l-.9-.9,4.6-4.6v-3.8h1.4v4.4l-5,5Z" style="fill:#7831fe; stroke-width:0px;"/></g></svg>