<?xml version="1.0" encoding="UTF-8"?><svg id="b" xmlns="http://www.w3.org/2000/svg" viewBox="0 0 440.7 69.2"><g id="c"><g id="d"><g id="e"><path d="m109.2,18h8.1l10.3,20.6,10.4-20.6h8l-18.3,34.5-18.5-34.5Z" style="fill:#fff; stroke-width:0px;"/><path d="m156.7,18h7.3v33.1h-7.3V18Z" style="fill:#fff; stroke-width:0px;"/><path d="m183.9,31.1v20h-7.2V18h7.3l11.6,21.2,11.8-21.2h7.1v33.1h-7.2v-19.9l-11.5,21-11.7-21Z" style="fill:#fff; stroke-width:0px;"/><path d="m225.7,18h26.1v6.6h-18.9v6.8h13.3v6.4h-13.3v6.7h18.9v6.6h-26.2V18Z" style="fill:#fff; stroke-width:0px;"/><path d="m284.7,51.1l-12.7-13.9v13.9h-7.3V18h15.8c7.7,0,12.5,3.9,12.5,10.5s-3.9,9.9-11.1,10.1l12.5,12.5h-9.7Zm-12.7-18.5h9.1c2.7,0,4.5-1.4,4.5-4.1s-1.8-4-4.5-4h-9.1v8.1Z" style="fill:#fff; stroke-width:0px;"/><path d="m321.7,24.7h-16.2v-6.7h28.3l-17.1,26.5h17.3v6.7h-29.3l17-26.5Z" style="fill:#fff; stroke-width:0px;"/><path d="m346.2,18h7.3v33.1h-7.3V18Z" style="fill:#fff; stroke-width:0px;"/><path d="m364.4,34.6c0-9.7,7.7-17.2,17.8-17.2s17.8,7.5,17.8,17.2-7.7,17.2-17.8,17.2-17.8-7.6-17.8-17.2Zm28.3,0c0-6.1-4.7-10.4-10.5-10.4s-10.5,4.3-10.5,10.4,4.7,10.4,10.5,10.4,10.5-4.3,10.5-10.4h0Z" style="fill:#fff; stroke-width:0px;"/><path d="m409.4,18h7.2l16.8,22.4v-22.4h7.2v33.1h-7.1l-16.8-22.4v22.4h-7.3V18Z" style="fill:#fff; stroke-width:0px;"/><polygon points="79.9 18.1 50.4 69.2 40 51.1 59 18.1 79.9 18.1" style="fill:#fff; stroke-width:0px;"/><polygon points="69.5 0 59 18.1 20.9 18.1 10.4 0 69.5 0" style="fill:#fff; stroke-width:0px;"/><polygon points="40 51.1 29.5 69.2 0 18.1 20.9 18.1 40 51.1" style="fill:#fff; stroke-width:0px;"/></g></g></g></svg>