<?xml version="1.0" encoding="UTF-8"?><svg id="b" xmlns="http://www.w3.org/2000/svg" viewBox="0 0 550.4 550.4"><g id="c"><path id="d" d="m45.7,388.3l20.4,20.2-7.4,4.7-5.2-5.2-7.6,7.8-4-3.1-6.6,8.1,5.2,4.3-4,3.8,3.6,2.1-7.1,16.1-7.8,1.2-8.8-9.5,10.2-6.6-3.3-3.6,4.3-3.1-5.5-6.6-5.7-.9-11.2,14-4.3-2.1,19-19.2-11.2-14.5v-3.1l8.8-4.7,5.2,8.8,5.5-2.8,5.9,5,11.6-10.9h0Z" style="fill:#ebffff; stroke:#2d135e; stroke-miterlimit:3; stroke-width:1.1px;"/><path id="e" d="m66.1,408.3l-27.9-27,13.9-11.7-14.4-10.3,4.9-16.2c1-15.6-5.3-43,3.1-46.8l37.3-9.9-19.3-6.3,33.7-22-8.1-14.6v-5.2s35.1,7.2,35.1,7.2l-.4,5.8,7.2-6.1.2,2.9,13.7,4.5-2.8,15.3-8.7.2-.2,20c-1.6-.4-3.3,2.4-4.9,7.6l-6.3,16.2h22.9l7.2,5.8-63.9,94.9-22.5-4.5Z" style="fill:#00eefd; stroke:#2d135e; stroke-miterlimit:3; stroke-width:1.1px;"/><path id="f" d="m145.2,252.7l-2.8,15.3-8.7.2-.2,20c-1.6-.4-3.3,2.4-4.9,7.6l-6.3,16.2h22.9l7.2,5.8-11.6,17.3,27.3,12.1.5-14.2,26.1-70.4-.5-5.2-35.6,9.1-13.5-14Z" style="fill:#00eefd; stroke:#2d135e; stroke-miterlimit:3; stroke-width:1.1px;"/><path id="g" d="m132.4,224l.8,21.5h-2c0-.1.3,3.1.3,3.1l13.7,4.2,13.4,14,36.2-9.3,16.7.3-.4-9.3-8.8.6c1.9-5.4,1-21.8,1.6-32.6l-2.1-.6v-9.9l-17,.8v5.4l-19.2,1.2,1,14.4c-8.2,3.4-10.2,2-13.4,1.5l-20.7-5.2h0Z" style="fill:#945cff; stroke:#2d135e; stroke-miterlimit:3; stroke-width:1.1px;"/><path id="h" d="m56.2,73.1l22.1,21,6.8,7.8,11.4,8.5-33.8,35.2-.7,18.9,4.3.7.4,2.1,2.5,3.9,3.2,3.9,4.3,3.2,6,1.4,1.4-3.6,2.5,3.6,6,2.1,9.6.4,4.6,2.1,9.2.4,3.2-.4-.4,25.3,2.8.6v11.2c0,0,11,2.5,11,2.5l.6,21.4h-1.8c0,0-7.4,6.1-7.4,6.1l.5-5.9-35.8-7.5-1.1-7.5c-1.6-6.9-8.9-2.9-13.9-3.2,1.1,6.3-4.3,8.4-8.9,11-2.8-5.2-12.2-4.6-18.9-6.4l-1.1,5c-7.8.7-13.9-5-16.7-2.5-2-1.6-1-5.7-6.8-4.3-4,.1-6.2,1.5-2.1,7.1-3.8,7.8-8.1,4.4-12.3,2.3l-4.3-10.2,3.3-7.8,4.8-3.8c-3-.7-5.1-2.8-3.4-9.9,2.1-3.2,6-5.1,1.6-12.8l5.9-4.3-1-6.1,17.1-6-.2-3.3,5.3,2.1,4.1-5.2-1.8-10.3,3.9.4c1.4-22-7-53-2.5-68.3l17.8-1.4-1.4-19.6h0Z" style="fill:#945cff; stroke:#2d135e; stroke-miterlimit:3; stroke-width:1.1px;"/><path id="i" d="m119,194.3l-.2,15.4,2.8.6v11.3c0,0,31.1,7.4,31.1,7.4,6.6,2.2,10.9-.3,13.8-1.4l-1-14.4-.6-16.8-19.9-2-.6,3.9-9.8-4.5-15.6.5Z" style="fill:#945cff; stroke:#2d135e; stroke-miterlimit:3; stroke-width:1.1px;"/><path id="j" d="m61.9,164.5l.2-5.5h13.7c0,.1.5,1.8.5,1.8h5c0,.1,7.7-3.7,7.7-3.7h12.1c0-.1,32.1-.1,32.1-.1l3.4,1.4,5-3.2h3.1l6.7,5.1-7,38-9.7-4.4-15.5.5v-10c.1,0-3.1.4-3.1.4l-9.2-.4-4.6-2.1-9.6-.4-6-2.1-2.5-3.6-1.4,3.6-6-1.4-4.3-3.2-3.2-3.9-2.5-3.9-.4-2.1-4.3-.7h0Z" style="fill:#945cff; stroke:#2d135e; stroke-miterlimit:3; stroke-width:1.1px;"/><path id="k" d="m200.6,260.9l13.2.5v-4.2h-2.8l42.8.9,22.3-10.3-16.2-57.4-48.4-13.3.4,3.2c-4.4-.1-11.8-6.5-12.2,1.9l1.2,15.3-16.2.9v8.3c.1,0,17.1-.8,17.1-.8v9.9l2.1.6c-.5,10.9.3,27.2-1.6,32.6l8.8-.6.2,9.3h-10.3" style="fill:#945cff; stroke:#2d135e; stroke-miterlimit:3; stroke-width:1.1px;"/><path id="l" d="m100.9,113.6l-4.5-3.1-33.8,35.2-.6,13.4h13.7c0,.1.5,1.8.5,1.8h5c0,.1,7.7-3.7,7.7-3.7h12.1c0-.1,32.1-.1,32.1-.1l3.4,1.4,5-3.2h3.1v-2.6s3.7.2,3.7.2l7.1-4h12.6l10.1,7.6,6.8,7.1,8.9,5.7,17.6,7.9v-2.3c0,0-9.9-10.7-9.9-10.7l-2-20.1-2-4.1-12.1-21.9-4.9-12.5-1.7,2.9h-1.3l-.5-2.2-6.6,3.2h-4.1c0,0-8.9,11.7-8.9,11.7h-3.4c0,0-2.7-1.3-2.7-1.3l-6.7,4.7h-5.5l-.2-1.3-3.4-.2-.3,1.4-3.1-.2-.3-.7h-3.1c0,0-.7,1-.7,1l-3.1-.2-1,1.5-4.9-5.5h-2.3c0,0-1.2-1.4-1.2-1.4l-1.1,1.4h-7.3l-3.1-3.3v-3.2c0,0-3.3,0-3.3,0h0Z" style="fill:#3c06ff; stroke:#2d135e; stroke-miterlimit:3; stroke-width:1.1px;"/><path id="m" d="m211.9,180.3l-.4-3.2-17.6-7.9-8.9-5.7-6.8-7.1-10.1-7.6h-12.6l-7.1,4-3.7-.2v2.6s6.7,5.1,6.7,5.1l-6.3,34.1,19.9,2,.6,16.8,19.2-1.2v-13.7c-.1,0,16.1-.9,16.1-.9l-1.2-15.3c.4-8.3,7.8-2,12.2-1.9h0Z" style="fill:#3c06ff; stroke:#2d135e; stroke-miterlimit:3; stroke-width:1.1px;"/><path id="n" d="m259.9,190.4l-21.3-5.9,1.9-22.1-4.4-.2.2-17.9h-3.2l-3.3-2.5.4-5.8-2.1-2.3,1.6-.9-.2-28.6-.7-.2v-4.2l.9-.2.5-3.1,25,11.9,38.6,30.4v5.9c-.1,0-10,6.5-10,6.5l-1.6,4.2-8.9,9.2h-3.8l-5.4,4-1.1,7.2-4.2,8h1.3l-.2,6.4Z" style="fill:#3c06ff; stroke:#2d135e; stroke-miterlimit:3; stroke-width:1.1px;"/><path id="o" d="m208,135.4l-10.4,4.4,2,4.1,2,20.1,10,10.7v2.3c0,0,27,7.4,27,7.4l1.9-22.1-4.4-.2.2-17.9h-3.2l-3.3-2.5.4-5.8-2.1-2.3-11.9-.4-8.1,1.9h0Z" style="fill:#3c06ff; stroke:#2d135e; stroke-miterlimit:3; stroke-width:1.1px;"/><path id="p" d="m81.5,91.4l-3.2,2.7,6.8,7.8,15.9,11.6h3.2c0,0,0,3.3,0,3.3l3.1,3.3h7.3l1.1-1.4,1.2,1.3h2.3c0,0,4.9,5.6,4.9,5.6l1-1.5,3.1.2.7-1.1h3.1c0,0,.3.8.3.8l3.1.2.3-1.4,3.4.2.2,1.3h5.5l6.7-4.7,2.7,1.3h3.4c0,0,8.9-11.7,8.9-11.7h4.1c0,0,6.6-3.3,6.6-3.3l.5,2.2h1.3l1.7-2.9-8.8-22.5v-2.7h15.2c0-.1-5.7-16.4-5.7-16.4v-6.6l2-1.4v-3.6c-.1,0,2.7-.9,2.7-.9,6-16.8,6.6-8.1,11.5-13.7.3-2.1-.2-3.7-2.2-4.1v-12.2h-5.4l-2.1-4.4c-.2-1.9.9-1.5,2-1.1l.9,3.1c-.5-3.1,3.1-7.8-7.6-6.9-2.5-2.2-2-6-8.6-5.7l-3.1,1.9-4.4-.4-5.6-4.7-9.1.2-2.1,11.5-27.9,7.5,23.4,30.5h-2.6v3.1c.1,0-11.4,0-11.4,0v-5c.1,0-7.2,0-7.2,0v9.6c.1,0-1.5-.2-1.5-.2-1.5-.8.2.7-5.7-3.4l.2-4.4c-2.8-3-6.8-1.5-10.5-1,2.2,1.5,4.6,3.4,5.5,3.4h-7.1c-.1,1-1.1,1.7-4.2,1.2l-5,13.6h-5.4l-.4,11.4-8.7,9.2v1.3h0Z" style="fill:#3c06ff; stroke:#2d135e; stroke-miterlimit:3; stroke-width:1.1px;"/><path id="q" d="m228,133.8l1.6-.9-.2-28.6-.7-.2v-4.2l.9-.2.5-3.1-35.5-15.6-7.6-1.2h-15.2v2.9l8.8,22.5,4.9,12.5,12.1,21.9,10.4-4.4,8.1-1.9,11.9.4Z" style="fill:#3c06ff; stroke:#2d135e; stroke-miterlimit:3; stroke-width:1.1px;"/><path id="r" d="m168.2,346.9l27.9,12.1-9.7,27.5-4-1.6v14.2l-7.3,15,36,15.4,15.8,3.2-16.2,65.9,6.1,7.3-.8,1.2,2,2.4-5.3,1.6,12.1,23-.8,10.5h-4l-1.6-8.9-4,.4-.8-3.6-26.7,2.4-1.6-4.9-2,.4,1.6,7.7,5.3,3.2h3.2l.8,1.6,5.3.4-.8,1.6-17,4.9-5.7-.4-14.6-8.1,4.4-10.5-4.9-25.5-3.6-.8-4.4-12.9,2.4-6.1-4.4-.8-2.8,2-6.9-1.2,1.2-6.9,5.3-14.6-2.4-3.6h-3.6l-1.2-4.9-.8-3.2-3.6-2.4,3.2-8.1-6.1-5.7,1.6-7.7,2.4-2.8-.8-5.3,6.1-6.1,2-27.9,8.5-14.6,7.3,4.4,8.1-29.5h0Z" style="fill:#ebffff; stroke:#2d135e; stroke-miterlimit:3; stroke-width:1.1px;"/><path id="s" d="m196.1,359l24.9,10.3,18.6,2.9-12.7,60.4-15.8-3.2-36-15.4,7.3-15v-14.2l4,1.6,9.7-27.5h0Z" style="fill:#ebffff; stroke:#2d135e; stroke-miterlimit:3; stroke-width:1.1px;"/><path id="t" d="m239.6,372.2l-18.6-2.9-24.9-10.3,18.6-47,36.5,10.3-11.6,50Z" style="fill:#00eefd; stroke:#2d135e; stroke-miterlimit:3; stroke-width:1.1px;"/><path id="u" d="m168.6,333.1l-.4,13.8,27.9,12.1,18.6-47-33-14.1-13.1,35.2h0Z" style="fill:#00eefd; stroke:#2d135e; stroke-miterlimit:3; stroke-width:1.1px;"/><path id="v" d="m213.8,257.2l22,.6-21,54.3-33-14.1,13.1-35.2-.5-5.2h6.6c0,.1-.3,3.4-.3,3.4l13.2.5v-4.2h0Z" style="fill:#00eefd; stroke:#2d135e; stroke-miterlimit:3; stroke-width:1.1px;"/><path id="w" d="m214.7,312l21-54.3,18,.4,7.3,65.2h-5.9c0,0-40.4-11.3-40.4-11.3h0Z" style="fill:#00eefd; stroke:#2d135e; stroke-miterlimit:3; stroke-width:1.1px;"/><path id="x" d="m261,323.3h-5.9c0,0-3.9-1-3.9-1l-11.6,50-2.4,11.3,32.6,3.9-8.8-64.1h0Z" style="fill:#00eefd; stroke:#2d135e; stroke-miterlimit:3; stroke-width:1.1px;"/><path id="y" d="m261,323.3l8.7,64.2,5.1.6,19.5-4.9-3.6-15h5.7l-1.7-53.8h-7.2l-14,8.1-12.5.8h0Z" style="fill:#00eefd; stroke:#2d135e; stroke-miterlimit:3; stroke-width:1.1px;"/><path id="z" d="m261,323.3l-7.3-65.2,22.3-10.3,2.5,6.9,3,13.9,5,12.6,4.6,26,3.3,3.3.2,3.9h-7.2l-14,8.1-12.5.8h0Z" style="fill:#00eefd; stroke:#2d135e; stroke-miterlimit:3; stroke-width:1.1px;"/><path id="aa" d="m294.4,383.1l-19.5,4.9-37.6-4.5-10.3,49.1-8.7,35.5,34.7,3.2-2.7,19h3.3l-1.1,8.9h22.7l2.5-12.8v-23.5l26.6-5.1-.9-8.2-.7-15.9-3.6-4.9-1.5-21.8h-1.4l-2.2-14h3.4l-2.9-9.9h0Z" style="fill:#ebffff; stroke:#2d135e; stroke-miterlimit:3; stroke-width:1.1px;"/><path id="ab" d="m290.1,147.4l-6.4,4.1-1.6,4.2-8.9,9.2h-3.8l-5.4,4-1.1,7.2-4.2,8h1.3l-.2,6.4,6.8,24.2,17-5.4.4,2.1,3,.2,9.6-5.1,14.8-1.3,6.8,4.7,13.8-23.3-3.3-3.5-23.5-21-8.1-3,3.9-11.3-11-.2h0Z" style="fill:#945cff; stroke:#2d135e; stroke-miterlimit:3; stroke-width:1.1px;"/><path id="ac" d="m266.7,214.6l17-5.4.4,2.1,3,.2,9.6-5.1,14.8-1.3,6.8,4.7,13.7-23.3,11.5,7.3,4,20.8-1.6,13-5.4,16.8-12.1,7.5-27.2-.2-22.7,2.9-2.4-6.8-9.4-33.2h0Z" style="fill:#00eefd; stroke:#2d135e; stroke-miterlimit:3; stroke-width:1.1px;"/><path id="ad" d="m332,186.4l11.5,7.3,4,20.8-1.6,13,12.1,5.1,20.6.7,11.8-.6,10.7,3.9,2.5-9.8,57.4,3.5.3-3.6-3.5-6.6-5.2-3.8-1.5-2.1-3.8-3.4.3-7-16.4-14.4-11.5-2.5-9.1-4.3-19.2,2.7-.7-6.7-26.9,3.5-34.9.7,3.3,3.7h0Z" style="fill:#00eefd; stroke:#2d135e; stroke-miterlimit:3; stroke-width:1.1px;"/><path id="ae" d="m291.2,307.2l-4.6-26-5-12.6-3-14,22.7-2.9,27.2.2,12.1-7.5-5.2,32.2-11.5,22.5v9.5l-32.6-1.5h0Z" style="fill:#00eefd; stroke:#2d135e; stroke-miterlimit:3; stroke-width:1.1px;"/><path id="af" d="m419,480.9c-3.8.9-6.9-.7-10.1-2.4-5.3-4.9-8.5,4-12.5,6-5.3-1.3-10.8-4.6-16.5-2.9-4.2,3.2-8.7,7.7-14.6,4.9-4.3-4.2-9.7,2.5-9.4,7-4.2.6-9.8-.9-12.8,4-5,15.3-3.8,10.2-10.3,9.5-4.9.9-5.9,10.8-12.5,8.5-1.3-5.2-4-1.1-7.4-.6-5.5-1.7-9.5,4.2-15.2,2.2-5,2.3-10,2.6-15.1.1-5.5-1.6-13.2-.9-15.1,5.6l6.8-10.5.7-13.1,2.5-12.8v-23.5l26.6-5.1-.9-8.2-.7-15.9-3.6-4.9-1.5-21.8,14-4.9,9.5,4.2,12.1-1.5-.4-6.8,37.1-7.2-14.4-21.6,20.5.4,7.6,7.2,5.3-5.7,1.9,4.5,5.7-.8,4.9-1.9,2.3.4.4,25.8-11-4.2-2.3,18.6-3-.4-.4,16.7,5.7,7.2,1.5,9.5,10.2,4.9,4.9-6.4,40.9-2.3-.4,6.4c-1.2,0-5,.7-3.8,3,.7,1.5.9,2.7.4,4.9-.5,1.9-.7,4.5-2.7,5.7-2,1.2-2.7,1.6-4.9.8-1.4-.5-3.2-2.1-3.8.4-.6,2.6.8,2.5.8,5.3s-1.7,2.7-2.3,4.9c-.4,1.7-2,3.4-4.2,3.4s-4.2,0-4.5-1.5c0-.3-.7-4.8-1.1-4.9-1-.2-5.1-.3-3.8,2.3.7,1.4,1.1,3.1,0,5.3-.4.8-.8,1.5-1.1,2.3h0Z" style="fill:#ebffff; stroke:#2d135e; stroke-miterlimit:3; stroke-width:1.1px;"/><path id="ag" d="m339,524.8c.4-5-6,4.2-8.7,4.3-5.3,1.5-10.8,2.4-15.9,4.6-2.7,3.3-5.4,7.6-9.2,6.7-4.4,4-10.6,1.6-15.8,1.7-3.1,3.2-11.1,5.7-12.6-.2.7-3.6,10.3-9.3,1.6-9.2-5.9.3-11.1-3.9-11-9.8,1.9-6.5,9.6-7.2,15.1-5.6,5.1,2.5,10.1,2.1,15.1-.1,5.7,2.1,9.7-3.9,15.2-2.2,3.4-.5,6.1-4.7,7.4.6,6.6,2.3,7.5-7.6,12.5-8.5,6.5.7,5.2,5.8,10.3-9.5,3-4.9,8.6-3.4,12.8-4-.3-4.5,5-11.2,9.4-7,5.9,2.8,10.4-1.7,14.6-4.9,5.8-1.7,11.3,1.6,16.5,2.9,4-2,7.2-10.9,12.5-6,3.2,1.6,6.4,3.2,10.1,2.4l.8-.8,1.5,3-9.1.4-11.4,3.8v8.3l3.8,3.4-13.3,2.7-4.5,4.5v-5.3l-13.6,2.3,1.1-4.9-11,5.3.8,13.3-10.6,4.5-.8-8.7-8.3,3.8,4.2,5.3-9.5,3h0Zm104.9-62.1c-2,1.2-2.7,1.6-4.9.8-1.4-.5-3.2-2.1-3.8.4-.6,2.6.8,2.5.8,5.3.2-.1.4-.2.6-.3.4-.4.6-.9,1.2-1.2.5-.2,1-.6,1.9-.6h2.4c.6,0,1.3,0,1.9-.1.5-.1,1.2-.4,1.4-.9.3-.6.5-.9.2-1.7-.2-.9-.3-.8-1-1.2-.2-.1-.4-.2-.5-.3h0Zm2.7-5.7c-1.6,2.4,4.3-3.5,5.6-4.2,2-1,3.7-2.4,5.4-3.7,1.9-1.5,3.3-3.7,5.4-4.9,1.6-1.6,4-.3,5.7.3,1.8,1,4.5.9,5.1-1.4,1.2-1.6,1.6-3.5,1.6-5.5.9-3,1.8,1.7,3.1,2.1,1.8,1.6,4.1,1.6,5.9,0,1.7-2,4.4-1,6.7-1.2,2.3,0,4.7.5,6.8-.8,1.4-1.4,1.8-4.8-.1-6.1-1.8,0-3.5-.7-5.4-.4-2.1-.4-4.2.9-5.5,2.5-1.2,1.4-3.5,1.2-5,.5-1.9-.8-3.4-2.4-5.4-3.1-1.6-.6-4-1.2-5.3.1-1.7,1.8-1,3.9-1.4,5.8-.7,1.6-.6,3.1-2.9,2-1.3-1.2-3.1-2.9-4.7-1.2-2.4,2.7-5.1,5.2-7.7,7.8-1.9,1.1-4.4.6-4.5,3.6-1.2,0-5,.7-3.8,3,.7,1.5.9,2.7.4,4.9Zm73.2-38.8l-.8-1c-1.3-1.3-2.4-2.7-3.5-4.1-.9-1-2.3-1.5-3.6-1.3-1.1,0-2.5.2-3.1,1.3-1.2,1.6-1.6,3.5-2.5,5.2-.9,1.4-2.5,2.7-4.3,2.3-1.4-.2-2.5-1.1-3.6-1.8-1.2-.5-2.5-.5-3.8-.4-1,.8.4,1.7,1,2.3l-.3,2.6c3.1-2.4,5.8,3.1,9.3,1.7,3.7,0,5.2-4.3,8.1-5.8,2.5,1.6,4.4-1.2,7-1.1h0Z" style="fill:#ebffff; stroke:#2d135e; stroke-miterlimit:3; stroke-width:1.1px;"/><path id="ah" d="m495.3,423.5l.3-2.6c-.6-.5-2-1.4-1-2.3,1.3-.1,2.6-.2,3.8.4,1.2.7,2.2,1.6,3.6,1.8,1.8.4,3.4-.9,4.3-2.3.9-1.7,1.3-3.6,2.5-5.2.6-1.1,2-1.3,3.1-1.3,1.3-.2,2.7.3,3.6,1.3,1.1,1.4,2.2,2.9,3.5,4.1l.8,1c3.1,2.2,6.4.9,9.6-.2,3.1.6,6-.9,8.8-2,3.1-.4,6.7-.7,9.5.8,2.9,3.7,2.7-4.2.1-4.1-3.3-2-6.5,1.4-9.9,1.1-1-1.4-3.7-1.6-5.8-2.6-2.9.8-3.1-4.2-5-3.3-1.3,3.6-6.5,2.7-7.3-.7-2.7-1.6-.6-7.9-4.3-7.4-.8,1.9-2.5,3.8-2.6,5.8,3.5,3.6-3.3,3.2-5.4,2.7-3,1.6-6.8,1.3-7.8-2.6-2,.8-2.5,4.5-5.1,5.3,1.7,1.8,1.9,5.3-1.4,7-1.2,1.5-1.6,7.7-4.4,4.4-1.1-3.4-2.8.2-2,1.9-1.3,3.7-6.3,3.9-6.5-.6-1.2,1.8-3.7,6.5-6,2.6-1.4-4.5-5.5,4-7.9-.2-4.6-2.4-7.3,3.1-7.7,6.9-.3,3.8-1.7,9.8-.4,8.5,1.3-1.3,2.6-2.6,3.8-3.9,1.6-1.7,3.4,0,4.7,1.2,2.3,1.1,2.2-.4,2.9-2,.3-1.9-.3-3.9,1.4-5.8,1.3-1.3,3.7-.8,5.3-.1,2,.7,3.5,2.3,5.4,3.1,1.5.7,3.8.9,5-.5,1.3-1.6,3.4-2.9,5.5-2.5,1.8-.3,3.6.4,5.4.4v-1.9c-.5-1.9-4.8-4-2.5-6.2h0Z" style="fill:#ebffff; stroke:#2d135e; stroke-miterlimit:3; stroke-width:1.1px;"/><path id="ai" d="m291.2,307.2l3.3,3.3.2,3.9,1.7,53.8h-5.7l3.6,15,2.9,9.9h-3.4l2.2,14h1.4l14-4.9,9.5,4.2,12.1-1.5-.4-6.8,37.1-7.2-14.4-21.6,20.5.4,7.6,7.2,5.1-5.4,5.9-5.1-3.3-9.4-8.1-6.1.6-2.1h8.7l-.6-11.3,25.7,2.3-.4-10.5-14.6-1.2-.3-15.7,4.2-5.1h-6.5l-3.6,3.6-4.9,1.6-27.3-.6-40-3.1-32.7-1.5h0Z" style="fill:#ebffff; stroke:#2d135e; stroke-miterlimit:3; stroke-width:1.1px;"/><path id="aj" d="m461,230.4l-57.4-3.5-2.5,9.8-10.7-3.9-11.8.6-20.6-.7-12.1-5.1-5.4,16.8-5.2,32.2-11.5,22.5v9.5c0,0,40,3.1,40,3.1l27.3.6,4.9-1.6,3.6-3.6h6.5l2.2-3.6,2.6.3,12.3-10.9,11.8-.3,4.3-3.7,7.2-.3v-3.7l12.9,6,7.7.9,11.8-10h9.5l4.6-3.7,4.3-.6,11.8,5.2,7.5-.3,10-5.4,6.6.3-.3-5.4-2-4.9-9.7-1.1-3.2-2.6-4.9-.3-6.9-8.6h-2.6l-2.9-2.6-14.9-.6-6.9-4.9-.6-4-6.3-6.9-11.1-4.9h0Z" style="fill:#ebffff; stroke:#2d135e; stroke-miterlimit:3; stroke-width:1.1px;"/><path id="ak" d="m530.8,266.9l-9.7-1.1-3.2-2.6-4.9-.3-6.9-8.6h-2.6l-2.9-2.6-14.9-.6-6.9-4.9-.6-4-6.3-6.9-11.1-4.9.3-3.6-3.5-6.6-5.2-3.8-1.5-2.1-3.8-3.4.3-7-16.4-14.4-11.5-2.5-9.1-4.3-19.2,2.7-.7-6.7-26.9,3.5-34.9.8-23.4-20.9-8.1-3,3.9-11.3,91.9-39.3,9.1-11.1,21.3-10.1,11.9-1.3,7.8-5.1,4.6.3,5.6-4.8,12.2,1.8h8.9v7.3l-5.8,4.1-2.5,7.1v2.8l6.1,7.6,2,4.3-.5,5.6,3,1.5,1.5-.3,10.4,6.6,17.7,3.5,3,4.6-.5,23.3,1.5,1.3v5.1l13.2,9.1,11.6,1.5,4.8,19-1.3,6.1,5.1,9.9,1.3,18.7-7.6,6.3-2.5,6.8,3.5,5.1-1,13.9h-2.3l-4.3,8.2h0Z" style="fill:#00eefd; stroke:#2d135e; stroke-miterlimit:3; stroke-width:1.1px;"/><path id="al" d="m294.1,128.5c-.7,3.4.1,7.1-.3,10.5v5.9c-.1,0-3.7,2.4-3.7,2.4l11,.2,91.9-39.3,9.1-11.1,13.8-6.6-3.6-4.2-27,1.9-8.2-5.7-10.3-9.9-6.7-3.6h-8l-1.3-1.5-2.9-.4-1.9-2.9-3.8.4-2.9,2.3-3.3-6.5-6.5-3.5-2.3,5-2.9,1.7-8.4.6-6.1,6.9-5.2,5.5,4.8,4-.8,12.2-2.9,2.7.2,7.3.2.3-4.5,2-.2,4.1,2.2,3.5-.2,5.3-4.9,4.1-4.4,6.4h0Z" style="fill:#945cff; stroke:#2d135e; stroke-miterlimit:3; stroke-width:1.1px;"/><path id="am" d="m339.4,67l2.9-2.3,3.8-.4,1.9,2.9,2.9.4,1.3,1.5h8l6.7,3.6,10.3,9.9,8.2,5.7,27-1.9,3.6,4.2,7.5-3.5,11.9-1.3,7.8-5.1,4.6.3,5.6-4.8,12.2,1.8h8.9l.3.2,6.1-1.2,1.4,3.1,5.6-.9-.2,4,1.9,2.8,13.2-11.5v-2.3l6.3-4,.2-7,20.2-3.1,4.5-3.3,6.3-12.9-45.3-28.2-3.3-.5-6.8,5.9-8.5-9.4-29.1,7.8-23.3-8.7-13.6-8-25.1,2.6v2.8l-7.5,6.3-4.2-3.3,2.1-3.5-5.2-.9-.9,3.3-5.2-1.4-4.2,1.9-.5,3.8,3.8,5.9,10.6,8.2-3.5,1.2.7,4.7-4.2,2.6-3.5-8.5-2.8.2-2.3,2.3-7.5,3.8-.5,6.8,2.8,3.5-9.9,5.6,3.1,4.9-7.3,6.3.5,7.2h0Z" style="fill:#ebffff; stroke:#2d135e; stroke-miterlimit:3; stroke-width:1.1px;"/><path id="an" d="m181.3,57.1v6.6l5.7,16.2,7.6,1.2,35.5,15.6,25,11.9,38.6,30.4c.5-3.4-.4-7.1.3-10.5l4.4-6.4,4.9-4.1.2-5.3.4.7-6.5-6.5-3,.5-4.4-3.5h7.6l.3-4.1-9.8-1.1.5-2.2,6.5-6.8-7.4-.8-.8,2.5h-3.3l-.5,1.4-3-.5-1.1,4.4-14.2-6,1.9-14.7-4.1-5.2-4.9-.3-5.7,3.5-4.1,9-4.4-.5-2.2,4.9-7.6-3.5,2.5-6-4.9-.3,3.8-10.6-1.9-3-7.6.3v-4.1l-9-2.2,3.3-10.9-4.1-3.8.8-2.2-6.5-3.3-.8,3.3h-3.8l-.8-1.4h-2.2l.8,2.7-4.6,4.6h-4.4l.5,2.7-3.3,3.3h-3.8l-1.9,4.4-4.8-.2h0Z" style="fill:#3c06ff; stroke:#2d135e; stroke-miterlimit:3; stroke-width:1.1px;"/></g></svg>