<?xml version="1.0" encoding="utf-8"?>
<svg version="1.1" id="svg119" xmlns="http://www.w3.org/2000/svg" x="0px" y="0px" viewBox="0 0 889.64 583.23" style="enable-background:new 0 0 889.64 583.23;">
  <style type="text/css">
	.st0{fill:#1C2B33;}
	.st1{fill:url(#path20_00000103978594751786541960000007438796779330205568_);}
	.st2{fill:url(#path22_00000074414314980465655260000017333066655875698603_);}
	.st3{fill:url(#path24_00000034775134068735817880000005457354756023290535_);}
	.st4{fill:url(#path26_00000052086276221385570690000018425566174027507851_);}
	.st5{fill:url(#path28_00000128463181741266536790000006080848613077524411_);}
	.st6{fill:url(#path30_00000036954408619203148890000013480829454696505787_);}
	.st7{fill:#0082FB;}
	.st8{fill:url(#path34_00000124161137304969053450000015757767777101412258_);}
	.st9{fill:url(#path38_00000056408210136943414930000013017095039249091257_);}
	.st10{fill:url(#path40_00000128471440510077159700000000521675864557766073_);}
	.st11{fill:url(#path42_00000094580851272845352630000010919675891892839857_);}
	.st12{fill:url(#path44_00000130624989722560735360000008579672736042488716_);}
	.st13{fill:url(#path46_00000131332894651414272520000009849218218607716014_);}
	.st14{fill:url(#path48_00000026144829019289322230000013093873080950108320_);}
	.st15{fill:none;}
</style>
  <path id="path2" class="st0" d="M182.32,246.66h15.52l26.38,47.65l26.38-47.65h15.18v78.31h-12.66v-60.02l-23.14,41.56h-11.88 l-23.14-41.56v60.02h-12.66L182.32,246.66L182.32,246.66z" style="fill: rgb(255, 255, 255);"/>
  <path id="path4" class="st0" d="M306.62,326.36c-5.86,0-11.02-1.3-15.46-3.89c-4.4-2.55-8-6.28-10.39-10.77 c-2.48-4.59-3.73-9.84-3.73-15.77c0-6,1.21-11.32,3.64-15.94c2.43-4.62,5.8-8.24,10.11-10.85c4.31-2.61,9.27-3.92,14.87-3.92 c5.56,0,10.35,1.31,14.37,3.94c4.01,2.63,7.11,6.31,9.27,11.05c2.17,4.74,3.25,10.29,3.25,16.67v3.47h-42.97 c0.78,4.77,2.72,8.53,5.8,11.27c3.08,2.74,6.97,4.11,11.68,4.11c3.77,0,7.02-0.56,9.75-1.68c2.73-1.12,5.28-2.82,7.67-5.09 l6.72,8.22C324.53,323.31,316.33,326.37,306.62,326.36z M315.86,279.91c-2.65-2.7-6.12-4.05-10.42-4.05c-4.18,0-7.68,1.38-10.5,4.14 c-2.82,2.76-4.6,6.47-5.35,11.13h30.81C320.03,286.36,318.52,282.62,315.86,279.91z" style="fill: rgb(255, 255, 255);"/>
  <path id="path6" class="st0" d="M347.91,276.98h-11.65v-10.35h11.65v-17.12h12.21v17.12h17.7v10.35h-17.7v26.23 c0,4.36,0.75,7.48,2.24,9.34c1.49,1.86,4.05,2.8,7.67,2.8c1.37,0.01,2.73-0.05,4.09-0.2c1.12-0.13,2.35-0.31,3.7-0.53v10.24 c-1.53,0.44-3.1,0.78-4.68,1.01c-1.81,0.27-3.63,0.4-5.46,0.39c-13.18,0-19.77-7.2-19.77-21.59L347.91,276.98L347.91,276.98z" style="fill: rgb(255, 255, 255);"/>
  <path id="path8" class="st0" d="M441.46,324.97h-11.99v-8.17c-2.07,3-4.86,5.44-8.12,7.08c-3.29,1.66-7.02,2.49-11.2,2.49 c-5.15,0-9.72-1.31-13.7-3.94c-3.98-2.63-7.11-6.25-9.38-10.85c-2.28-4.6-3.42-9.87-3.42-15.8c0-5.96,1.16-11.24,3.47-15.83 c2.31-4.59,5.52-8.18,9.61-10.79c4.09-2.61,8.79-3.92,14.09-3.92c4,0,7.58,0.77,10.76,2.32c3.13,1.51,5.84,3.77,7.9,6.57v-7.49 h11.99L441.46,324.97L441.46,324.97z M429.25,287.05c-1.31-3.32-3.37-5.94-6.19-7.86c-2.82-1.92-6.08-2.88-9.77-2.88 c-5.23,0-9.39,1.75-12.49,5.26c-3.1,3.51-4.65,8.24-4.65,14.21c0,6,1.49,10.76,4.48,14.26c2.99,3.51,7.04,5.26,12.16,5.26 c3.77,0,7.13-0.97,10.08-2.91c2.9-1.88,5.13-4.62,6.39-7.83V287.05z" style="fill: rgb(255, 255, 255);"/>
  <path id="path10" class="st0" d="M542.38,264.87c3.38,6.1,5.07,13.08,5.07,20.95c0,7.35-1.59,13.96-4.76,19.86 c-3.18,5.89-7.41,10.59-12.72,14.1c5.19,6.53,9.54,13.01,13.05,19.47h-14.45c-2.67-5.05-5.68-9.9-9.02-14.54 c-3.78,1.12-7.71,1.69-11.65,1.68c-5.75,0-11.04-1-15.85-2.99c-4.72-1.93-8.99-4.8-12.55-8.45c-3.58-3.69-6.38-8.07-8.23-12.86 c-1.94-4.94-2.92-10.36-2.91-16.25c0-5.89,0.97-11.31,2.91-16.25c1.85-4.8,4.65-9.17,8.23-12.86c3.56-3.64,7.83-6.52,12.55-8.45 c4.82-1.99,10.1-2.99,15.85-2.99c7.69,0,14.52,1.74,20.47,5.23C534.27,253.92,539.11,258.89,542.38,264.87z M485.1,300.72 c2.24,4.31,5.33,7.67,9.27,10.1c3.94,2.42,8.45,3.64,13.53,3.64c5.11,0,9.63-1.21,13.55-3.64c3.92-2.42,7-5.79,9.24-10.1 c2.24-4.31,3.36-9.27,3.36-14.91c0-5.63-1.12-10.6-3.36-14.91c-2.24-4.31-5.32-7.67-9.24-10.1c-3.92-2.42-8.44-3.64-13.55-3.64 c-5.08,0-9.59,1.21-13.53,3.64c-3.94,2.42-7.03,5.79-9.27,10.1c-2.24,4.31-3.36,9.28-3.36,14.91 C481.74,291.45,482.86,296.41,485.1,300.72L485.1,300.72z" style="fill: rgb(255, 255, 255);"/>
  <path id="path12" class="st0" d="M609.97,324.97h-12.05v-8.39c-4.48,6.53-10.68,9.79-18.6,9.79c-6.87,0-12.15-2.16-15.83-6.49 c-3.68-4.33-5.52-10.52-5.52-18.57v-34.68h12.21v33.22c0,5.41,0.95,9.41,2.86,12c1.91,2.59,4.89,3.89,8.96,3.89 c3.51,0,6.63-0.92,9.36-2.77c2.73-1.85,4.85-4.43,6.39-7.75v-38.59h12.21L609.97,324.97L609.97,324.97z" style="fill: rgb(255, 255, 255);"/>
  <path id="path14" class="st0" d="M650.18,326.36c-5.86,0-11.02-1.3-15.46-3.89c-4.4-2.55-8-6.28-10.39-10.77 c-2.48-4.59-3.73-9.84-3.73-15.77c0-6,1.21-11.32,3.64-15.94c2.43-4.62,5.8-8.24,10.11-10.85c4.31-2.61,9.27-3.92,14.87-3.92 c5.56,0,10.35,1.31,14.37,3.94c4.02,2.63,7.11,6.31,9.27,11.05c2.16,4.74,3.25,10.29,3.25,16.67v3.47h-42.97 c0.78,4.77,2.72,8.53,5.8,11.27c3.08,2.74,6.97,4.11,11.68,4.11c3.77,0,7.02-0.56,9.75-1.68c2.72-1.12,5.28-2.82,7.67-5.09 l6.72,8.22C668.09,323.31,659.89,326.37,650.18,326.36z M659.43,279.91c-2.65-2.7-6.12-4.05-10.42-4.05c-4.18,0-7.68,1.38-10.5,4.14 c-2.82,2.76-4.6,6.47-5.35,11.13h30.81C663.59,286.36,662.08,282.62,659.43,279.91z" style="fill: rgb(255, 255, 255);"/>
  <path id="path16" class="st0" d="M726.2,321.42c-4.33,3.3-10.14,4.95-17.42,4.95c-6.16,0-11.53-1.08-16.1-3.24 c-4.58-2.16-7.98-5.07-10.22-8.73l8.23-7.16c1.72,2.61,4.09,4.68,7.11,6.21c3.03,1.53,6.63,2.29,10.81,2.29 c7.81,0,11.71-2.27,11.71-6.82c0-1.94-0.64-3.5-1.93-4.67c-1.29-1.17-3.41-2-6.36-2.49l-11.26-1.96c-5.3-0.93-9.36-2.81-12.16-5.65 c-2.8-2.83-4.2-6.49-4.2-10.96c0-5.41,2.16-9.75,6.47-13.03c4.31-3.28,10.15-4.92,17.51-4.92c5.34,0,10.13,1.09,14.37,3.27 s7.39,5.01,9.44,8.47l-8.46,6.38c-1.42-2.31-3.53-4.14-6.33-5.48c-2.8-1.34-6.05-2.01-9.75-2.01c-3.47,0-6.15,0.6-8.04,1.79 c-1.89,1.19-2.83,2.85-2.83,4.98c0,1.83,0.58,3.24,1.74,4.25c1.16,1.01,3.1,1.75,5.83,2.24l12.66,2.24 c5.08,0.9,8.96,2.81,11.65,5.73c2.69,2.93,4.03,6.61,4.03,11.05C732.7,313.69,730.53,318.12,726.2,321.42z" style="fill: rgb(255, 255, 255);"/>
  <path id="path18" class="st0" d="M749.06,276.98h-11.65v-10.35h11.65v-17.12h12.21v17.12h17.7v10.35h-17.7v26.23 c0,4.36,0.75,7.48,2.24,9.34c1.49,1.86,4.05,2.8,7.67,2.8c1.37,0.01,2.73-0.05,4.09-0.2c1.12-0.13,2.35-0.31,3.7-0.53v10.24 c-1.53,0.44-3.1,0.78-4.68,1.01c-1.81,0.27-3.63,0.4-5.46,0.39c-13.18,0-19.78-7.2-19.78-21.59V276.98z" style="fill: rgb(255, 255, 255);"/>
  <linearGradient id="path20_00000062153382300549870770000002413724555839119537_" gradientUnits="userSpaceOnUse" x1="101.9807" y1="799.4582" x2="74.2206" y2="763.026" gradientTransform="matrix(1 0 0 1 0 -513.2756)">
    <stop offset="0.0006" style="stop-color:#0867DF"/>
    <stop offset="0.4539" style="stop-color:#0668E1"/>
    <stop offset="0.8591" style="stop-color:#0064E0"/>
  </linearGradient>
  <path id="path20" style="fill:url(#path20_00000062153382300549870770000002413724555839119537_);" d="M67.68,244 c-0.04,0-0.08,0-0.12,0l-0.16,13.47c0.04,0,0.07,0,0.11,0c8.88,0,15.76,6.99,30.73,32.16l0.91,1.53l0.06,0.1l8.38-12.55l-0.06-0.1 c-1.97-3.2-3.87-6.15-5.68-8.84c-2.11-3.12-4.12-5.9-6.08-8.39C85.87,248.8,77.59,244,67.68,244z"/>
  <linearGradient id="path22_00000070829014474074339760000010920798504240216505_" gradientUnits="userSpaceOnUse" x1="47.8835" y1="775.8729" x2="66.9306" y2="761.39" gradientTransform="matrix(1 0 0 1 0 -513.2756)">
    <stop offset="0.1323" style="stop-color:#0064DF"/>
    <stop offset="0.9988" style="stop-color:#0064E0"/>
  </linearGradient>
  <path id="path22" style="fill:url(#path22_00000070829014474074339760000010920798504240216505_);" d="M67.56,244 c-9.96,0.05-18.76,6.48-25.12,16.32c-0.02,0.03-0.04,0.06-0.06,0.09l11.67,6.34c0.02-0.03,0.04-0.06,0.06-0.09 c3.71-5.58,8.33-9.14,13.28-9.19c0.04,0,0.07,0,0.11,0L67.68,244C67.64,244,67.6,244,67.56,244z"/>
  <linearGradient id="path24_00000017511764080339041610000012581036468641584283_" gradientUnits="userSpaceOnUse" x1="39.7926" y1="797.0683" x2="47.4212" y2="777.8347" gradientTransform="matrix(1 0 0 1 0 -513.2756)">
    <stop offset="0.0147" style="stop-color:#0072EC"/>
    <stop offset="0.6881" style="stop-color:#0064DF"/>
  </linearGradient>
  <path id="path24" style="fill:url(#path24_00000017511764080339041610000012581036468641584283_);" d="M42.44,260.32 c-0.02,0.03-0.04,0.06-0.06,0.09c-4.18,6.49-7.29,14.46-8.97,23.05c-0.01,0.04-0.01,0.07-0.02,0.11l13.11,3.09 c0.01-0.04,0.01-0.07,0.02-0.11c1.4-7.55,4.07-14.56,7.53-19.8c0.02-0.03,0.04-0.06,0.06-0.09L42.44,260.32z"/>
  <linearGradient id="path26_00000019678167555574612010000009964788675119896223_" gradientUnits="userSpaceOnUse" x1="38.7503" y1="810.955" x2="39.6326" y2="799.2133" gradientTransform="matrix(1 0 0 1 0 -513.2756)">
    <stop offset="0.0731" style="stop-color:#007CF6"/>
    <stop offset="0.9943" style="stop-color:#0072EC"/>
  </linearGradient>
  <path id="path26" style="fill:url(#path26_00000019678167555574612010000009964788675119896223_);" d="M46.52,286.54l-13.11-3.09 c-0.01,0.04-0.01,0.07-0.02,0.11c-0.92,4.72-1.38,9.53-1.39,14.34c0,0.04,0,0.08,0,0.12l13.44,1.2c0-0.04,0-0.08,0-0.12 c-0.01-0.28-0.01-0.56-0.01-0.85c0.01-3.89,0.37-7.78,1.07-11.61C46.51,286.62,46.52,286.58,46.52,286.54z"/>
  <linearGradient id="path28_00000008851367539773732750000009914571670631194760_" gradientUnits="userSpaceOnUse" x1="39.2366" y1="817.3325" x2="38.6054" y2="812.6282" gradientTransform="matrix(1 0 0 1 0 -513.2756)">
    <stop offset="0.0731" style="stop-color:#007FF9"/>
    <stop offset="1" style="stop-color:#007CF6"/>
  </linearGradient>
  <path id="path28" style="fill:url(#path28_00000008851367539773732750000009914571670631194760_);" d="M45.85,303.41 c-0.24-1.38-0.38-2.78-0.41-4.19c0-0.04,0-0.08,0-0.12L32,297.91c0,0.04,0,0.08,0,0.12v0.01c-0.01,2.81,0.23,5.62,0.74,8.39 c0.01,0.04,0.01,0.07,0.02,0.11l13.11-3.01C45.86,303.49,45.86,303.45,45.85,303.41z"/>
  <linearGradient id="path30_00000131366177641864242790000010137117098557867930_" gradientUnits="userSpaceOnUse" x1="38.8683" y1="818.566" x2="42.8037" y2="826.9261" gradientTransform="matrix(1 0 0 1 0 -513.2756)">
    <stop offset="0.0731" style="stop-color:#007FF9"/>
    <stop offset="1" style="stop-color:#0082FB"/>
  </linearGradient>
  <path id="path30" style="fill:url(#path30_00000131366177641864242790000010137117098557867930_);" d="M48.92,310.36 c-1.46-1.59-2.5-3.89-3.04-6.84c-0.01-0.04-0.01-0.07-0.02-0.11l-13.12,3.01c0.01,0.04,0.01,0.07,0.02,0.11 c0.99,5.2,2.94,9.53,5.72,12.8c0.02,0.03,0.05,0.06,0.07,0.09l10.44-8.98C48.97,310.42,48.94,310.39,48.92,310.36z"/>
  <path id="path32" class="st7" d="M87.77,273.11c-7.9,12.1-12.69,19.69-12.69,19.69c-10.53,16.48-14.17,20.17-20.03,20.17 c-2.45,0-4.49-0.87-6.05-2.53c-0.03-0.03-0.05-0.06-0.08-0.08l-10.44,8.98c0.02,0.03,0.05,0.06,0.08,0.09 c3.84,4.47,9.27,6.96,15.98,6.96c10.16,0,17.46-4.78,30.45-27.44c0,0,5.41-9.54,9.14-16.12C91.81,279.11,89.71,275.89,87.77,273.11z "/>
  <linearGradient id="path34_00000169556900337423756660000001591072006462783124_" gradientUnits="userSpaceOnUse" x1="99.5116" y1="778.1447" x2="104.7169" y2="770.9341" gradientTransform="matrix(1 0 0 1 0 -513.2756)">
    <stop offset="0.2799" style="stop-color:#007FF8"/>
    <stop offset="0.9141" style="stop-color:#0082FB"/>
  </linearGradient>
  <path id="path34" style="fill:url(#path34_00000169556900337423756660000001591072006462783124_);" d="M101.86,254.01 c-0.03,0.03-0.05,0.06-0.08,0.09c-2.14,2.31-4.15,4.75-6,7.29c1.95,2.49,3.97,5.28,6.08,8.39c2.48-3.83,4.8-6.93,7.07-9.3 c0.03-0.03,0.05-0.06,0.08-0.08L101.86,254.01z"/>
  <path id="path36" class="st7" d="M140.22,252.82c-5.51-5.56-12.08-8.82-19.11-8.82c-7.41,0-13.64,4.05-19.26,10.01 c-0.03,0.03-0.05,0.06-0.08,0.09l7.15,6.38c0.03-0.03,0.05-0.06,0.08-0.08c3.7-3.85,7.29-5.77,11.26-5.77l0,0 c4.28,0,8.28,2.01,11.74,5.53c0.03,0.03,0.05,0.05,0.08,0.08l8.22-7.33C140.28,252.88,140.25,252.85,140.22,252.82z"/>
  <linearGradient id="path38_00000172429659764425533300000013055708114222715310_" gradientUnits="userSpaceOnUse" x1="139.1742" y1="768.8024" x2="150.0542" y2="808.8893" gradientTransform="matrix(1 0 0 1 0 -513.2756)">
    <stop offset="0" style="stop-color:#0082FB"/>
    <stop offset="0.9995" style="stop-color:#0081FA"/>
  </linearGradient>
  <path id="path38" style="fill:url(#path38_00000172429659764425533300000013055708114222715310_);" d="M156.16,296.14 c-0.31-17.85-6.57-33.81-15.85-43.23c-0.03-0.03-0.05-0.05-0.08-0.08l-8.22,7.34c0.03,0.03,0.05,0.05,0.08,0.08 c6.99,7.17,11.78,20.49,12.21,35.89c0,0.04,0,0.08,0,0.12l11.86,0C156.16,296.21,156.16,296.18,156.16,296.14z"/>
  <linearGradient id="path40_00000078742423546957521260000015700004039247576972_" gradientUnits="userSpaceOnUse" x1="152.6994" y1="810.4115" x2="145.8114" y2="824.3537" gradientTransform="matrix(1 0 0 1 0 -513.2756)">
    <stop offset="0.0619" style="stop-color:#0081FA"/>
    <stop offset="1" style="stop-color:#0080F9"/>
  </linearGradient>
  <path id="path40" style="fill:url(#path40_00000078742423546957521260000015700004039247576972_);" d="M156.16,296.25 c0-0.04,0-0.08,0-0.12l-11.86,0c0,0.04,0,0.08,0,0.12c0.02,0.72,0.03,1.45,0.03,2.18c0,4.2-0.63,7.59-1.91,10.04 c-0.02,0.04-0.04,0.07-0.06,0.11l8.84,9.18c0.02-0.03,0.04-0.07,0.07-0.1c3.21-4.94,4.89-11.81,4.89-20.14 C156.17,297.1,156.17,296.67,156.16,296.25z"/>
  <linearGradient id="path42_00000069398941226956180990000011843706926203183290_" gradientUnits="userSpaceOnUse" x1="140.3188" y1="831.7415" x2="146.7678" y2="827.3422" gradientTransform="matrix(1 0 0 1 0 -513.2756)">
    <stop offset="0" style="stop-color:#027AF3"/>
    <stop offset="1" style="stop-color:#0080F9"/>
  </linearGradient>
  <path id="path42" style="fill:url(#path42_00000069398941226956180990000011843706926203183290_);" d="M142.43,308.48 c-0.02,0.04-0.04,0.07-0.06,0.11c-1.11,2.07-2.68,3.44-4.75,4.05l4.03,12.68c0.53-0.18,1.05-0.38,1.56-0.61 c0.15-0.07,0.3-0.14,0.45-0.21c0.09-0.04,0.17-0.08,0.26-0.12c2.69-1.35,5-3.35,6.74-5.8c0.11-0.15,0.22-0.31,0.33-0.47 c0.08-0.11,0.15-0.22,0.23-0.34c0.02-0.03,0.04-0.07,0.07-0.1L142.43,308.48z"/>
  <linearGradient id="path44_00000078039545003180564880000007608648233242213518_" gradientUnits="userSpaceOnUse" x1="130.1913" y1="832.596" x2="139.162" y2="832.596" gradientTransform="matrix(1 0 0 1 0 -513.2756)">
    <stop offset="0" style="stop-color:#0377EF"/>
    <stop offset="0.9994" style="stop-color:#0279F1"/>
  </linearGradient>
  <path id="path44" style="fill:url(#path44_00000078039545003180564880000007608648233242213518_);" d="M135.06,312.98 c-1.28,0.03-2.54-0.22-3.71-0.72l-4.13,12.98c2.32,0.79,4.79,1.15,7.55,1.15c2.38,0.02,4.74-0.35,6.99-1.11l-4.03-12.68 C136.87,312.86,135.96,312.98,135.06,312.98z"/>
  <linearGradient id="path46_00000000212806139336095510000011543450687902246586_" gradientUnits="userSpaceOnUse" x1="122.3946" y1="827.6591" x2="128.8385" y2="831.4561" gradientTransform="matrix(1 0 0 1 0 -513.2756)">
    <stop offset="0.0019" style="stop-color:#0471E9"/>
    <stop offset="1" style="stop-color:#0377EF"/>
  </linearGradient>
  <path id="path46" style="fill:url(#path46_00000000212806139336095510000011543450687902246586_);" d="M126.8,308.54 c-0.03-0.03-0.05-0.06-0.08-0.09l-9.5,9.86c0.03,0.03,0.05,0.06,0.08,0.08c3.3,3.51,6.45,5.69,10.02,6.88l4.12-12.97 C129.95,311.66,128.49,310.49,126.8,308.54z"/>
  <linearGradient id="path48_00000155135617431961523320000002891440640963678652_" gradientUnits="userSpaceOnUse" x1="102.736" y1="799.7164" x2="123.3555" y2="825.6818" gradientTransform="matrix(1 0 0 1 0 -513.2756)">
    <stop offset="0.2765" style="stop-color:#0867DF"/>
    <stop offset="1" style="stop-color:#0471E9"/>
  </linearGradient>
  <path id="path48" style="fill:url(#path48_00000155135617431961523320000002891440640963678652_);" d="M126.72,308.45 c-2.85-3.31-6.37-8.81-11.91-17.72l-7.22-12.03l-0.06-0.1l-8.38,12.55l0.06,0.1l5.12,8.6c4.96,8.29,9,14.28,12.9,18.45 c0.03,0.03,0.05,0.06,0.08,0.09l9.49-9.86C126.77,308.51,126.75,308.48,126.72,308.45z"/>
  <g>
    <path class="st0" d="M797.45,315.08l8.51-7.65c2.95,4.06,6.01,7.01,9.17,8.85c3.16,1.84,6.76,2.76,10.78,2.76h1.15 c5.1,0,9.24-1.34,12.42-4.02c3.18-2.68,4.77-6.4,4.77-11.15c0-4.79-1.59-8.52-4.77-11.18c-3.18-2.66-7.32-4-12.42-4h-1.15 c-2.18,0-4.02,0.08-5.52,0.23c-1.49,0.15-3.09,0.42-4.77,0.8v-9.26l21.91-20.99h-35.82v-11.15h52.15v9.66l-21.79,20.87 c4.91,0.38,9.2,1.69,12.88,3.91c3.68,2.22,6.55,5.16,8.62,8.8c2.07,3.64,3.1,7.74,3.1,12.3c0,5.29-1.22,9.91-3.65,13.86 c-2.43,3.95-5.83,7.02-10.18,9.2c-4.35,2.18-9.4,3.28-15.15,3.28h-1.27C814.05,330.2,804.39,325.16,797.45,315.08z" style="fill: rgb(255, 255, 255);"/>
  </g>
  <g>
    <rect x="820" y="352" class="st15" width="0" height="50"/>
  </g>
</svg>