<?xml version="1.0" encoding="UTF-8" standalone="no"?>
<svg
   xmlns:dc="http://purl.org/dc/elements/1.1/"
   xmlns:cc="http://creativecommons.org/ns#"
   xmlns:rdf="http://www.w3.org/1999/02/22-rdf-syntax-ns#"
   xmlns:svg="http://www.w3.org/2000/svg"
   xmlns="http://www.w3.org/2000/svg"
   xmlns:sodipodi="http://sodipodi.sourceforge.net/DTD/sodipodi-0.dtd"
   xmlns:inkscape="http://www.inkscape.org/namespaces/inkscape"
   id="Horizontal"
   width="1000"
   height="215.30162"
   version="1.1"
   xml:space="preserve"
   sodipodi:docname="Oculus_2015.svg"
   inkscape:version="1.0.2-2 (e86c870879, 2021-01-15)"><metadata
   id="metadata16"><rdf:RDF><cc:Work
       rdf:about=""><dc:format>image/svg+xml</dc:format><dc:type
         rdf:resource="http://purl.org/dc/dcmitype/StillImage" /><dc:title></dc:title></cc:Work></rdf:RDF></metadata><defs
   id="defs14">
	
	
	
	
	
	
	
</defs><sodipodi:namedview
   pagecolor="#ffffff"
   bordercolor="#666666"
   borderopacity="1"
   objecttolerance="10"
   gridtolerance="10"
   guidetolerance="10"
   inkscape:pageopacity="0"
   inkscape:pageshadow="2"
   inkscape:window-width="1366"
   inkscape:window-height="705"
   id="namedview12"
   showgrid="false"
   inkscape:snap-bbox="false"
   inkscape:bbox-nodes="true"
   inkscape:object-paths="false"
   inkscape:snap-nodes="true"
   inkscape:snap-page="false"
   inkscape:zoom="0.5"
   inkscape:cx="502.42295"
   inkscape:cy="114.05619"
   inkscape:window-x="-8"
   inkscape:window-y="-8"
   inkscape:window-maximized="1"
   inkscape:current-layer="layer1" />
<style
   type="text/css"
   id="style39">
	.st0{fill:#1C1E20;}
</style>

<g
   inkscape:groupmode="layer"
   id="layer1"
   inkscape:label="Layer 1"
   transform="translate(1.348e-5,-0.0156596)"
   style="display:inline;opacity:1"><g
     id="g241"><path
       class="st0"
       d="M 316.57747,24.432135 C 304.07819,14.404196 289.59369,7.3730005 273.95575,3.6235522 265.05389,1.4891872 256.01583,0.51029198 246.83283,0.17937297 240.08626,-0.06374683 233.19963,0.0358655 226.45477,0.0358655 h -96.58052 c -6.74485,0 -13.63415,-0.03876046 -20.37806,0.14350747 C 100.31058,0.42763267 91.413681,1.4685715 82.373274,3.6235522 66.730395,7.352378 52.394341,14.404197 39.895063,24.432135 14.651858,44.684289 -1.348e-5,75.23378 -1.348e-5,107.66647 c 0,32.43269 14.65187048,62.98218 39.89507648,83.23433 12.499278,10.02794 26.983772,17.05913 42.621719,20.80858 8.90186,2.13437 17.939918,3.11326 27.122908,3.44418 6.74658,0.24312 13.63321,0.14351 20.37806,0.14351 h 96.58053 c 6.74485,0 13.63415,0.0388 20.37806,-0.14351 9.18561,-0.24826 18.0825,-1.2892 27.12291,-3.44418 15.64288,-3.72883 29.97894,-10.78064 42.47822,-20.80858 25.2432,-20.25215 39.89507,-50.80164 39.89507,-83.23433 0,-32.43269 -14.65187,-62.982182 -39.89507,-83.234335 z M 269.36351,136.65498 c -4.75123,3.27835 -10.04553,5.30977 -15.64232,6.17082 -5.59679,0.86104 -11.33709,0.71754 -16.93388,0.71754 H 119.82872 c -5.74029,0 -11.33546,0.13285 -16.93388,-0.71754 -5.738688,-0.8717 -10.906565,-2.87015 -15.642312,-6.17082 -9.471493,-6.60135 -15.211792,-17.36441 -15.211792,-28.98851 0,-11.624107 5.740299,-22.387167 15.211792,-28.988511 4.735747,-3.300672 10.045523,-5.309776 15.642312,-6.170821 5.59679,-0.861045 11.33709,-0.717537 16.93388,-0.717537 h 116.95859 c 5.7403,0 11.33546,-0.132856 16.93388,0.717537 5.73869,0.8717 10.90657,2.870149 15.64232,6.170821 9.47149,6.601344 15.14004,17.364625 15.21179,28.988511 0.0718,11.62476 -5.61219,22.36478 -15.21179,28.98851 z"
       id="path43"
       style="fill:#000000;stroke:none;stroke-width:1.43507"
       sodipodi:nodetypes="cccccccccccccccccccccccccccccccccc" /><path
       id="path53-8"
       style="display:inline;fill:#000000;stroke:none;stroke-width:1.43507"
       d="m 881.42287,106.51841 c 0,4.36652 0.0193,8.46482 -0.71754,12.48515 -0.55306,3.01757 -1.54527,5.90445 -3.15716,8.46694 -3.98509,6.33528 -11.19355,9.47291 -18.36896,9.615 -7.31885,0.14493 -14.36226,-2.8634 -18.22545,-9.47149 -1.59012,-2.71994 -2.60295,-5.59309 -3.15716,-8.61045 -0.73738,-4.01462 -1.00455,-8.32344 -1.00455,-12.34164 0,-2.72665 -0.14351,-5.30978 -0.14351,-8.036423 V 63.035645 H 814.8354 v 37.168435 c 0,6.50915 -0.0113,12.60448 0.57403,18.65597 0.5967,6.16867 1.6635,12.22634 4.44874,17.93843 5.68192,11.65275 16.93451,18.36352 29.41903,19.80404 6.17145,0.71209 12.49091,0.16305 18.36895,-1.57859 5.74612,-1.70256 11.76762,-4.59224 15.92933,-9.04097 0.14351,2.87015 0.43053,6.02732 0.57403,8.89747 h 18.51247 V 63.035645 h -21.23911 z m -160.15434,0 c 0,4.36652 0.0193,8.46482 -0.71754,12.48515 -0.55306,3.01757 -1.54527,5.90445 -3.15716,8.46694 -3.98509,6.33528 -11.19355,9.47291 -18.36896,9.615 -7.31885,0.14493 -14.36226,-2.8634 -18.22545,-9.47149 -1.59012,-2.71994 -2.60295,-5.59309 -3.15716,-8.61045 -0.73738,-4.01462 -1.00455,-8.32344 -1.00455,-12.34164 0,-2.72665 -0.14351,-5.30978 -0.14351,-8.036423 V 63.035645 h -21.81314 v 37.168435 c 0,6.50915 -0.0113,12.60448 0.57403,18.65597 0.5967,6.16867 1.6635,12.22634 4.44874,17.93843 5.68192,11.65275 16.93451,18.36352 29.41903,19.80404 6.17145,0.71209 12.49091,0.16305 18.36895,-1.57859 5.74612,-1.70256 11.76762,-4.59224 15.92933,-9.04097 0.14351,2.87015 0.43053,6.02732 0.57403,8.89747 h 18.51247 V 63.035645 h -21.23911 z m 47.07046,-92.131797 h 22.96119 V 155.02393 H 768.33899 Z M 612.34636,134.93289 c -5.02276,1.14806 -10.47604,1.00455 -15.49881,-0.57403 -5.02276,-1.57858 -9.32798,-4.73575 -12.48515,-9.04097 -3.01365,-4.30523 -4.59223,-9.4715 -4.87925,-14.63777 -0.28701,-5.16626 0.71754,-10.61955 3.15716,-15.211787 2.58314,-4.879254 6.31433,-8.179926 11.33709,-10.332538 2.15262,-0.861045 4.30523,-1.578582 6.60135,-1.865597 3.01366,-0.430522 5.7403,-0.57403 8.75395,-0.143507 5.30978,0.57403 10.18903,2.583134 14.63777,5.453283 4.44873,-5.596791 8.75395,-11.193582 13.20268,-16.646866 -7.60589,-6.027314 -16.21634,-9.471493 -25.68783,-10.476045 -9.32799,-1.004553 -18.94299,0.430522 -27.55344,4.448731 -8.61045,4.161717 -15.4988,10.619553 -20.09104,19.086494 -4.44874,8.323433 -6.31433,17.938432 -5.88381,27.266422 0.43052,9.32798 3.30067,18.65597 8.75396,26.40537 5.45328,7.89291 13.20268,13.4897 22.24365,16.50336 8.89747,3.01366 18.65597,3.58769 27.84045,1.57858 9.18448,-2.0091 17.79493,-6.45783 24.39627,-13.34619 -5.02276,-5.16627 -9.90201,-10.33254 -14.92477,-15.49881 -4.16172,3.44418 -8.89747,5.88381 -13.92023,7.03187 z m 386.1786,-15.92933 c -3.15716,-8.89747 -10.90656,-14.35075 -19.08649,-17.50791 -4.59224,-1.8656 -9.32799,-2.870153 -14.06373,-4.018212 -2.15261,-0.430523 -4.16172,-0.861045 -6.31433,-1.435075 -1.72209,-0.430522 -3.58769,-1.004552 -5.30978,-1.72209 -1.86559,-0.861045 -3.73119,-1.865597 -5.02276,-3.444179 -1.14806,-1.291567 -1.72209,-3.013657 -1.43507,-4.735747 0.28701,-2.009104 1.43507,-3.731194 3.01365,-5.022761 1.14806,-0.861045 2.29612,-1.578582 3.58769,-2.009105 1.72209,-0.717537 3.44418,-1.004552 5.16627,-1.291567 3.58769,-0.430522 7.17537,-0.143507 10.61955,0.57403 5.30978,1.14806 10.18903,3.157164 14.78127,6.027314 3.58769,-5.022762 7.31888,-9.902016 10.90657,-14.924777 -7.31888,-5.309776 -15.49881,-8.610448 -24.39627,-10.045523 -5.02276,-0.717537 -10.04552,-0.861045 -14.92478,-0.143507 -3.8747,0.574029 -7.60589,1.435074 -11.19358,3.013656 -4.73575,2.009105 -9.04097,4.879254 -12.34164,9.040971 -2.43963,2.870149 -4.16172,6.314329 -5.16627,9.902016 -1.29157,4.448731 -1.29157,9.184478 0.14351,13.776717 1.29156,4.161716 3.73119,7.605899 6.88835,10.476049 6.74485,5.8838 16.35986,8.03641 24.53978,9.7585 2.87015,0.57403 5.7403,1.14806 8.61045,2.00911 2.29612,0.71754 4.73575,1.43507 6.74485,2.72664 1.57858,1.00455 3.15716,2.29612 4.16172,3.8747 0.86104,1.43508 1.29156,3.01366 1.14806,4.59224 -0.14351,1.57858 -0.71754,2.87015 -1.72209,4.16172 -1.14806,1.43507 -2.58314,2.43962 -4.16172,3.30067 -2.15261,1.00455 -4.44873,1.57858 -6.74485,1.8656 -3.15716,0.43052 -6.60134,0.28701 -9.75851,-0.14351 -3.58769,-0.43052 -6.88836,-1.29157 -10.33254,-2.43963 -5.16627,-1.86559 -9.615,-4.59224 -13.92022,-7.89291 -3.8747,5.16627 -7.7494,10.33254 -11.62411,15.49881 6.88836,5.7403 14.78127,9.90201 23.39172,12.48515 4.73575,1.29157 9.615,2.15261 14.63776,2.29612 4.01821,0.14351 7.89291,-0.14351 11.91112,-0.71754 5.02276,-0.86104 10.04553,-2.43963 14.49426,-5.16627 3.30067,-2.0091 6.02731,-4.44873 8.46694,-7.46239 3.01366,-3.8747 4.87925,-8.46694 5.59679,-13.34619 0.43057,-4.01821 0.14351,-8.03642 -1.29157,-11.91112 z M 494.52733,61.314442 c -12.62866,0 -24.97075,4.734421 -34.01172,13.775391 -9.04097,9.040971 -13.63281,21.526572 -13.63281,34.011717 0,12.62866 4.44825,24.96982 13.34571,34.1543 8.89747,9.18448 21.23852,13.91992 33.86718,13.91992 12.62865,0 24.97075,-4.73442 34.01172,-13.77539 9.04097,-9.04097 13.63281,-21.52657 13.63281,-34.01172 0,-12.628659 -4.44824,-24.969818 -13.3457,-34.154296 -9.04097,-9.040971 -21.23853,-13.919922 -33.86719,-13.919922 z m 0.61328,21.232422 c 6.65814,0.154938 13.26336,2.606229 17.95899,7.365234 6.35451,6.440279 8.26764,16.168552 6.68359,24.929692 -1.58152,8.74715 -7.66453,16.80935 -16.27343,19.57226 -9.6006,3.08118 -21.14539,0.95207 -28.01368,-6.6289 -7.90139,-8.72127 -8.63806,-22.50194 -3.12109,-32.693364 2.92126,-5.396412 7.95397,-9.540899 13.82812,-11.333985 2.87331,-0.877076 5.91108,-1.281364 8.9375,-1.210937 z"
       sodipodi:nodetypes="ccccccccccccccccccccccccccccccccccccccccccccccccccccccccccccccccccccccccccccccccccccccccccccccccccccccccccccccccccccccccccc" /></g></g></svg>
