<?xml version="1.0" encoding="UTF-8"?><svg id="b" xmlns="http://www.w3.org/2000/svg" viewBox="0 0 91.3 103.8"><g id="c"><path d="m88.7,26.5c0-.4,0-.5-.5-.5-1.1,0-2.2-.1-3.3-.3-4-.6-17.1-7.5-19.3-18.7,0-.2-.5-3-.5-4.2,0-.5,0-.5-.5-.5-.1,0-.2,0-.4,0-5.1,0-10.2,0-15.3,0-1,0-.9-.1-.9.9,0,22.2,0,44.3,0,66.5,0,.8,0,1.7-.2,2.5-.8,4.3-3,7.6-6.7,9.9-3.2,2-6.7,2.6-10.4,1.8-1.2-.2-2.3-.7-3.4-1.1,0,0-.2-.2-.3-.2-.4-.3-.8-.6-1.2-.8-4.7-3.3-7-7.8-6.3-13.5.7-5.8,4-9.7,9.5-11.7,1.6-.6,3.3-.9,5.1-.8,1.1,0,2.2.2,3.3.5.4.1.6,0,.6-.4,0-.1,0-.3,0-.4,0-4-.1-12.7-.2-12.7,0-1.1,0-2.3,0-3.4,0-.3-.2-.4-.4-.4-2.1-.2-4.1-.3-6.2-.1-2.9.2-5.6.8-8.3,1.8-4.3,1.5-8.1,3.9-11.3,7.1-2.8,2.7-5,5.9-6.6,9.5-1.5,3.4-2.4,7-2.7,10.8-.1,1.6,0,3.2,0,4.9.2,2.2.6,4.4,1.3,6.6,2,6.2,5.5,11.2,10.6,15.3.5.4,1,.9,1.6,1.1,0,0,0,0,0,0,.3.2.5.5.8.7.8.6,1.7,1.1,2.6,1.6,5.7,2.8,11.7,3.9,18,3.2,8.2-1,15-4.6,20.4-10.9,5.1-5.9,7.5-12.8,7.5-20.5,0-11,0-22.1,0-33.1,0-.3-.2-.6.1-.8.2-.1.5.2.7.3,4.1,2.7,8.5,4.6,13.3,5.7,2.8.6,5.6,1,8.5,1,.9,0,1,0,1-.9,0-3.9-.2-14.6-.2-15.7Z" style="fill:none; stroke:#f4f4f4; stroke-linejoin:round; stroke-width:4.6px;"/></g></svg>