<?xml version="1.0" encoding="UTF-8"?><svg id="b" xmlns="http://www.w3.org/2000/svg" viewBox="0 0 101.3 100.7"><g id="c"><path d="m65.6,76.6l-9.4,19.1L31,30.4l65.4,25.4-19,9,22.4,22.5-11.8,11.8-22.4-22.5Zm22.8,16.7l5.6-5.7-23.4-23.5,15.6-8-47.9-18.5,18.5,48,8-15.7,23.5,23.5Zm-58.8-5.8v-4.1h6.3v-8.6H6.3c-2.9,0-5.2-2.3-5.2-5.2V6.3C1.1,3.5,3.5,1.1,6.3,1.1h88.7c2.8,0,5.2,2.4,5.2,5.2v40.1h-4.1V5.2H5.2v52.9h25.6v4.1H5.2v8.5h34.8v16.9h-10.4Zm-11.8-42.3l4.9-5,3,2.9-5,5-2.9-2.9Zm-4.4-10.3v-4.1h7v4.1h-7Zm4.3-14l3-2.9,4.9,4.9-2.9,3-4.9-4.9Zm22.5,1.8l5-5,2.9,2.9-5,5-2.9-2.9Zm-9.3-2.1v-7h4.1v7h-4.1Z" style="fill:#fff; stroke-width:0px;"/></g></svg>