<?xml version="1.0" encoding="UTF-8"?><svg id="b" xmlns="http://www.w3.org/2000/svg" viewBox="0 0 115 129.1"><g id="c"><path d="m85.1,42c-6.7,1.7-19.8,1.2-36.5-8.9C31.9,23,21,10.3,24.3,4.8c3-5,16.6-2.3,31.6,5.8" style="fill:none; stroke:#f4f4f4; stroke-linecap:round; stroke-linejoin:round; stroke-width:4.6px;"/><path d="m80.8,35.8c3.5-3.5,9.1-3.5,12.6,0,3.5,3.5,3.5,9.1,0,12.6-3.2,3.2-8.1,3.4-11.6.8" style="fill:none; stroke:#f4f4f4; stroke-linecap:round; stroke-linejoin:round; stroke-width:4.6px;"/><polyline points="46.9 32.4 2.3 77 52.2 126.8 112.7 66.3 112.2 36.2 93 16.9 62.9 16.4 53.2 26.1" style="fill:none; stroke:#f4f4f4; stroke-linecap:round; stroke-linejoin:round; stroke-width:4.6px;"/><path d="m41.9,75.4c-3.1,3.1-2.9,8.4.4,11.7,3.4,3.3,8.6,3.5,11.7.4,3.1-3.1,1.2-7.7-.2-12-1.4-4.3-3.3-8.9-.2-12,3.1-3.1,8.4-2.9,11.7.4,3.4,3.4,3.5,8.6.4,11.7" style="fill:none; stroke:#f4f4f4; stroke-linecap:round; stroke-linejoin:round; stroke-width:4.6px;"/><line x1="65.4" y1="63.9" x2="68.7" y2="60.6" style="fill:none; stroke:#f4f4f4; stroke-linecap:round; stroke-linejoin:round; stroke-width:4.6px;"/><line x1="38.9" y1="90.4" x2="42.2" y2="87.1" style="fill:none; stroke:#f4f4f4; stroke-linecap:round; stroke-linejoin:round; stroke-width:4.6px;"/></g></svg>