<?xml version="1.0" encoding="UTF-8"?><svg id="b" xmlns="http://www.w3.org/2000/svg" viewBox="0 0 103.1 103.1"><g id="c"><path d="m1.1,102V1.1h100.9v100.9H1.1Zm52.6-4.3h44.1v-44.1h-16.1v-5.4c0-2.1.8-3.9,1.5-4.9,1-1.5,1.5-3,1.5-4.6v-1.4h0c-.8-3.8-3.8-6.2-7.3-6.2s-1,0-1.5.1h0s0,0,0,0c-3.1,1-5,3-5.8,5.9h0c-.4,2.2.5,4.5,1.5,5.9,1.1,1.4,1.7,3.1,1.7,5.2v5.4h-19.3v15.1h1.1c.9,0,1.4-.3,1.9-.5.1,0,.3-.1.4-.2h0s0,0,0,0c2.5-1.7,4.8-2.4,7.1-2.4,3.8,0,6.7,1.3,8.8,4.1,1.5,1.7,2.4,3.6,2.8,5.6.5,3.2-.2,6.1-1.9,8.7-1.7,2.6-4.3,4.2-7.6,5-.6.1-1.3.2-2,.2-2.4,0-4.9-.8-7.2-2.4h0c0,0,0,0,0,0-.1,0-.3-.1-.4-.2-.5-.2-1.1-.5-1.9-.5h-1.1v11.8Zm-48.3,0h44.1v-16.1h5.4c2.1,0,3.7.5,5.1,1.6,1.1,1.1,2.6,1.7,4.4,1.7s.9,0,1.4-.1h.1c2.9-.8,4.9-2.8,5.9-5.9h0c0,0,0-.2,0-.2.4-2.5-.1-4.7-1.5-6.4-1.6-1.7-3.6-2.6-5.7-2.6s-3.1.5-4.5,1.5c-1.4,1-3.5,1.7-5.2,1.7h-5.4v-19.3h-11.8v1.1c0,1,.4,1.7.8,2.4v.2c1.6,2.2,2.4,4.6,2.4,7.1s-1.2,6.1-3.5,8.4c-2.3,2.3-5,3.4-8.3,3.4s-1.1-.2-1.3-.3l-.2-.3h-.4c-4.9-1.1-8.7-4.9-9.5-9.5-.7-2.8,0-6,2-8.7.8-.8.9-2.3.9-2.6v-1.1H5.4v44.1Zm17.7-37.6c-1.6,1.6-1.9,4.1-1.5,5.8h0c0,0,0,.1,0,.1,1,3.1,3,5,5.9,5.8h.1s1.5,0,1.5,0c4.2,0,7.5-3.4,7.5-7.5s-.4-3.3-1.6-4.5c-1-1.4-1.7-3.4-1.7-5.1v-5.4h16.1v-11.8h-1.1c-.8,0-1.6.2-2.5.7h0c-2.1,1.5-4.5,2.3-6.8,2.3s-1.5,0-2.2-.3c-4.8-.8-8.7-4.7-9.5-9.5v-.3s-.2-.2-.2-.2c0-.2,0-1.1,0-1.5,0-3.3,1.1-6,3.4-8.3,2.3-2.3,5.1-3.5,8.4-3.5s5,.8,7.1,2.3h0c.8.5,1.5.9,2.5.9h1.1V5.4H5.4v44.1h19.3v5.4c0,1.9-.5,3.7-1.7,5.3Zm54.3-33.2c3.3,0,6,1.2,8.3,3.5,2.3,2.3,3.5,5,3.5,8.3s-.8,4.7-2.4,7.1h0c0,0,0,.2,0,.2,0,.1-.1.3-.2.4-.2.5-.5,1.1-.5,1.9v1.1h11.8V5.4h-44.1v19.3h-5.4c-2,0-3.8-.7-5.1-2h0c0,0,0,0,0,0-1.2-.9-2.7-1.4-4.3-1.4s-4.3.9-5.8,2.5c-1.4,1.7-2,3.9-1.6,6.4h0c0,0,0,.2,0,.2.9,2.9,3.1,5.1,5.9,5.9.4.1.8.1,1.2.1,1.5,0,3.2-.6,4.5-1.6,1.4-1.1,3-1.6,5.2-1.6h5.4v16h15.1v-1.1c0-1-.4-1.8-.8-2.4-2-2.8-2.8-6-2.2-9,.8-4.8,4.7-8.7,9.5-9.5h.2s.2-.1.2-.1c0,0,.2,0,.7,0s.8,0,.9,0Z" style="fill:#fff; stroke-width:0px;"/></g></svg>