<?xml version="1.0" encoding="UTF-8"?><svg id="b" xmlns="http://www.w3.org/2000/svg" viewBox="0 0 105 105"><g id="c"><path d="m94.1,103.9c-9.3,0-23.1-8-32.5-15.2l2.6-3.5c12.5,9.2,23.3,14.4,29.7,14.4s3.4-.5,4.2-1.5c3.9-4.3-1.5-18.5-13.3-34.5l3.5-2.7c1.6,2.3,3.6,5.2,5.8,8.6,2.5,3.6,4.6,7.5,6.5,11.8,4.2,9.4,4.4,16.1.6,19.9-1.6,1.7-4.2,2.7-7.1,2.7Zm-43.8,0v-4.4h4.4v4.4h-4.4Zm-39.5,0c-2.7,0-5-.9-7.1-2.7-3.7-3.7-3.3-10.4,1.1-20.4,3.4-7.7,8.7-15.3,12.8-20.6l3.5,2.6c-12.4,16.5-18.3,31.4-14,35.7.9.9,2.3,1.4,4.2,1.4,3.9,0,9.7-2,16.8-5.8,14.3-8.5,26.8-18.3,37-29.1,10.7-10.1,20.5-22.6,29-36.9,5.6-10.5,7.3-18.2,4.4-21-.9-.9-2.4-1.4-4.3-1.4-3.9,0-9.6,2-16.7,5.8-12.7,7.1-25.5,17.2-37,29-.7.8-1.5,1.5-2.2,2.2-.9.9-1.8,1.7-2.6,2.6l-3.3-3.1c1.7-1.8,3.1-3.5,4.5-5.2,11.1-11.4,23.8-21.3,37.7-29.6,7.6-4.2,14-6.4,18.9-6.4s5.6.9,7.3,2.6c4.5,4.5,3.2,13.6-3.8,26.3-8.7,14.6-18.7,27.3-29.6,37.8-11.4,11.7-24.1,21.7-37.9,29.7-5.8,3.6-12.1,5.7-18.8,6.4Zm26.3-36.1c-11.5-11.5-21.4-24.2-29.6-37.8C2.6,21.2-2,9.5,4,3.9c1.9-1.9,4.1-2.8,6.8-2.8s1,0,1.5,0c3.6.4,7.4,1.5,11.4,3.2,8.7,3.8,16.8,9.5,20.1,12l-2.7,3.5C23.3,6.9,14.3,5.5,11.2,5.5s-3.5.8-4.1,1.5c-2.9,2.8-1.2,10.5,4.5,20.9,7.3,12.8,17.3,25.6,29,36.9l3.2,3.1-3.1,3.1-3.5-3.2Zm62.3-13.1v-4.4h4.4v4.4h-4.4Zm-49.2,0v-4.4h4.4v4.4h-4.4Zm-49.2,0v-4.4h4.4v4.4H1.1Zm68.2-9.3c-1.4-1.8-2.9-3.5-5-5.2-1.2-1-2.3-2.1-3.4-3.2-.7-.7-1.5-1.5-2.3-2.3l3.1-3.3c.4.4.8.8,1.2,1.2,1.6,1.5,3.2,3,4.8,4.6l4.8,5.1-3.3,3.1ZM50.3,5.6V1.2h4.4v4.4h-4.4Z" style="fill:#fff; stroke-width:0px;"/></g></svg>