<?xml version="1.0" encoding="UTF-8"?><svg id="b" xmlns="http://www.w3.org/2000/svg" viewBox="0 0 113.5 113.5"><g id="c"><path d="m107.5,112.4V6h-37.6v106.4h-26.2V41.5H6v70.9H1.1V36.5h47.5v70.9h16.4V1.1h47.5v111.3h-4.9Zm-14.2,0v-7.1h-9.3v7.1h-4.9v-12h19.1v12h-4.9Zm-63.8,0v-7.1h-9.3v7.1h-4.9v-12h19.1v12h-4.9Zm63.8-21.3v-4.9h4.9v4.9h-4.9Zm-14.2,0v-4.9h4.9v4.9h-4.9Zm-49.6-7.1v-4.9h4.9v4.9h-4.9Zm-14.2,0v-4.9h4.9v4.9h-4.9Zm78-7.1v-4.9h4.9v4.9h-4.9Zm-14.2,0v-4.9h4.9v4.9h-4.9Zm-49.6-7.1v-4.9h4.9v4.9h-4.9Zm-14.2,0v-4.9h4.9v4.9h-4.9Zm78-7.1v-4.9h4.9v4.9h-4.9Zm-14.2,0v-4.9h4.9v4.9h-4.9Zm-49.6-7.1v-4.9h4.9v4.9h-4.9Zm-14.2,0v-4.9h4.9v4.9h-4.9Zm78-7.1v-4.9h4.9v4.9h-4.9Zm-14.2,0v-4.9h4.9v4.9h-4.9Zm14.2-14.2v-4.9h4.9v4.9h-4.9Zm-14.2,0v-4.9h4.9v4.9h-4.9Zm14.2-14.2v-4.9h4.9v4.9h-4.9Zm-14.2,0v-4.9h4.9v4.9h-4.9Z" style="fill:#fff; stroke-width:0px;"/></g></svg>