<?xml version="1.0" encoding="UTF-8"?><svg id="b" xmlns="http://www.w3.org/2000/svg" viewBox="0 0 133.9 82.6"><g id="c"><line x1="98" y1="61" x2="113.2" y2="61" style="fill:none; stroke:#f4f4f4; stroke-linecap:round; stroke-linejoin:round; stroke-width:4.6px;"/><path d="m51.5,80.1c-2.2.5-6.9.7-9.9-4.4l-12.7-21.8h-7.7" style="fill:none; stroke:#f4f4f4; stroke-linecap:round; stroke-linejoin:round; stroke-width:4.6px;"/><line x1="63.9" y1="57.5" x2="71.5" y2="71.2" style="fill:none; stroke:#f4f4f4; stroke-linecap:round; stroke-linejoin:round; stroke-width:4.6px;"/><line x1="52.9" y1="66.4" x2="57.8" y2="75" style="fill:none; stroke:#f4f4f4; stroke-linecap:round; stroke-linejoin:round; stroke-width:4.6px;"/><path d="m81.3,74.3c-2.2.9-6.5,2.7-9.9-3.2" style="fill:none; stroke:#f4f4f4; stroke-linecap:round; stroke-linejoin:round; stroke-width:4.6px;"/><path d="m65.8,78s-4.6,3.2-8-3" style="fill:none; stroke:#f4f4f4; stroke-linecap:round; stroke-linejoin:round; stroke-width:4.6px;"/><line x1="21.1" y1="9.6" x2="46.2" y2="9.6" style="fill:none; stroke:#f4f4f4; stroke-linecap:round; stroke-linejoin:round; stroke-width:4.6px;"/><polyline points="2.5 2.3 20.6 2.3 20.6 61.9 2.3 61.9" style="fill:none; stroke:#f4f4f4; stroke-linecap:round; stroke-linejoin:round; stroke-width:4.6px;"/><polyline points="131.5 7.5 113.3 7.5 113.3 67 131.6 67" style="fill:none; stroke:#f4f4f4; stroke-linecap:round; stroke-linejoin:round; stroke-width:4.6px;"/><path d="m99.5,63.4l-20.5-39.1c-1.7-.1-10.6-.9-10.6-.9l-12.1,12.3c-10.1,7.7-15.6-3.7-15.6-3.7l15.6-20.3c5.2-6.6,10.5-6.6,10.5-6.6h23.4s22.9,10,22.9,10" style="fill:none; stroke:#f4f4f4; stroke-linecap:round; stroke-linejoin:round; stroke-width:4.6px;"/><path d="m100.8,61.8c-.9,2.6-6.9,18-14.6,4.5l-10.7-16.8" style="fill:none; stroke:#f4f4f4; stroke-linecap:round; stroke-linejoin:round; stroke-width:4.6px;"/><circle cx="127.6" cy="52.2" r="1.4" style="fill:none; stroke:#f4f4f4; stroke-linecap:round; stroke-linejoin:round; stroke-width:4.6px;"/><path d="m7.6,46.9c0,.8-.6,1.4-1.4,1.4s-1.4-.6-1.4-1.4.6-1.4,1.4-1.4,1.4.6,1.4,1.4Z" style="fill:none; stroke:#f4f4f4; stroke-linecap:round; stroke-linejoin:round; stroke-width:4.6px;"/><path d="m9,48.2c0,.8-.6,1.4-1.4,1.4s-1.4-.6-1.4-1.4.6-1.4,1.4-1.4,1.4.6,1.4,1.4Z" style="fill:none; stroke:#f4f4f4; stroke-linecap:round; stroke-linejoin:round; stroke-width:4.6px;"/></g></svg>