<?xml version="1.0" encoding="UTF-8"?><svg id="b" xmlns="http://www.w3.org/2000/svg" viewBox="0 0 110.2 109.9"><g id="c"><path d="m90.7,108.4v-.2l3.6-27.8h8.8l-2.6-12.1,3.4-4.5-4.6-28.1c-.5-2.8-2-3.3-2.8-3.3h-1.8l.2-1.9v-13.5c0-3.5-2.7-6.3-6.2-6.3s-6.3,2.7-6.3,6.3l-.7,15.2-1.7.2c-1.7,0-3,1.5-3.1,3.3l-5.9,31.1h6.6l-2,13.4h7l5.1,28h-3.9l-4.7-24h-8l2.5-13.7h-6.2l-5.6-13.7h-13.8l-7.8,13.7h-3.4l-5.6-41.2h-1.3l-8.4-4v-5.4l3.4-3.8v-7.3l-4-3.6h-4.9l-4,3.6v7.1l3.8,3.4v5.3l-10.3,5.2v31.2l6.9,4.8v42.4h-4v-40.5l-6.9-4.8V30.9c0-2.2,1.3-3.9,3.6-4.9l7.8-3.6-4.9-4.5v-8.3c0-1.7.9-3.3,1.8-4h0c0,0,3-2.8,3-2.8,1.2-.8,2.3-1.4,3.6-1.4h3.8c1.1,0,2.2.4,3.5,1.4l3.1,2.7c1.3,1.2,2,2.6,2,4.1v8l-4.5,4.9,7.7,3.1c1.9.7,3.2,2.7,3.2,4.9h0c0,0,4.5,32.6,4.5,32.6l6.4-11.3v-6.9c0-5.1,3.7-8.8,8.8-8.8s8.8,3.7,8.8,8.8v6.9l4.9,9.6,4.9-26.6h0c.3-2.5,1.7-4.6,4.1-5.8l.8-.4v-11.5c0-5.7,4.5-10.2,10.2-10.2s10.1,4.5,10.1,10.2v11.4l.6.4c2.2,1.5,3.6,3.4,4.2,5.7l5,30.2-3.4,4.5,2.6,15h-9.9l-3.1,24h-4.1ZM54.9,40.1c-2.8,0-4.9,2.1-4.9,4.9v8h9.8v-8c0-2.8-2.1-4.9-4.9-4.9Zm4.9,68.4v-24.6h4v24.6h-4Zm-13.7,0v-24.6h4v24.6h-4Zm-20.6-.1v-34.9h4.1v34.9h-4.1Z" style="fill:#fff; stroke-width:0px;"/></g></svg>