<?xml version="1.0" encoding="UTF-8"?><svg id="b" xmlns="http://www.w3.org/2000/svg" viewBox="0 0 665.7 119.4"><g id="c"><path d="m325.3,62.3h-.3v.2s0,0,0,0c0,0,.1,0,.2,0,0,0,.1.1.1.2,0,.1-.1.3-.3.3s-.2,0-.2,0h0c0,0,0,0,.2,0s.2,0,.2-.2c0,0,0-.2-.2-.2s0,0-.1,0v-.4h.4Z" style="stroke-width:0px;"/><path d="m325.4,63h0c0,0,0-.1,0-.1.2-.2.3-.3.3-.4s0-.1-.2-.1-.1,0-.2,0h0c0-.1.1-.2.2-.2.2,0,.2.1.2.2s-.1.3-.3.4h0c0,0,.3,0,.3,0h0c0,0-.5,0-.5,0Z" style="stroke-width:0px;"/><path d="m326.3,63c-.1,0-.3-.1-.3-.4,0-.3.1-.4.3-.4s.3.1.3.4,0,.4-.3.4h0Zm0,0c.1,0,.2-.1.2-.3s0-.3-.2-.3-.2.1-.2.3c0,.2,0,.3.2.3h0Z" style="stroke-width:0px;"/><path d="m327.1,62.9s0,0-.2,0c-.2,0-.3-.1-.3-.3s.1-.3.3-.3.1,0,.1,0h0c0,0,0,0-.1,0-.1,0-.2,0-.2.2s0,.2.2.2,0,0,.1,0h0Z" style="stroke-width:0px;"/><path d="m327.7,62.1v.7c0,0,0,.1,0,.1h0c0,0,0,0,0,0,0,0-.1.1-.2.1-.1,0-.2-.1-.2-.3,0-.2.1-.3.3-.3s.1,0,.2,0h0v-.3h.1Zm-.1.5s0,0,0,0c0,0,0-.1-.1-.1s-.2,0-.2.2,0,.2.2.2.1,0,.2-.1c0,0,0,0,0,0h0Z" style="stroke-width:0px;"/><path d="m328.3,62.3s0,0,0,0c-.2,0-.2.1-.3.3h0s.1,0,.2,0c.1,0,.2,0,.2.2s0,.3-.3.3-.3-.1-.3-.3,0-.3.1-.3c0,0,.1-.1.2-.1,0,0,0,0,0,0h0Zm-.2.6c0,0,.1,0,.1-.2s0-.2-.2-.2-.1,0-.1,0c0,0,0,0,0,0,0,.1,0,.2.2.2h0Z" style="stroke-width:0px;"/><path d="m169.8,31.6h12.1l15.5,30.8,15.6-30.8h11.9l-27.3,51.7-27.7-51.7Z" style="fill:#fff; stroke-width:0px;"/><path d="m240.8,31.6h10.9v49.6h-10.9V31.6Z" style="fill:#fff; stroke-width:0px;"/><path d="m281.5,51.2v29.9h-10.8V31.6h10.8l17.4,31.7,17.6-31.7h10.5v49.6h-10.8v-29.8l-17.3,31.3-17.5-31.5Z" style="fill:#fff; stroke-width:0px;"/><path d="m344,31.6h39.1v9.9h-28.3v10.1h19.8v9.6h-19.8v10.1h28.3v9.9h-39.2V31.6h0Z" style="fill:#fff; stroke-width:0px;"/><path d="m432.3,81.2l-19-20.7v20.7h-10.9V31.6h23.6c11.5,0,18.7,5.8,18.7,15.8s-5.9,14.8-16.6,15.1l18.7,18.7h-14.5Zm-19-27.7h13.6c4.1,0,6.7-2,6.7-6.1s-2.6-6.1-6.7-6.1h-13.6v12.2Z" style="fill:#fff; stroke-width:0px;"/><path d="m487.7,41.5h-24.3v-10h42.3l-25.6,39.6h25.9v10h-43.8l25.5-39.6Z" style="fill:#fff; stroke-width:0px;"/><path d="m524.3,31.6h10.9v49.6h-10.9V31.6Z" style="fill:#fff; stroke-width:0px;"/><path d="m551.6,56.3c0-14.5,11.5-25.7,26.6-25.7s26.6,11.2,26.6,25.7-11.5,25.8-26.6,25.8-26.6-11.3-26.6-25.8Zm42.4,0c0-9.1-7.1-15.6-15.8-15.6s-15.8,6.5-15.8,15.6,7.1,15.6,15.8,15.6,15.8-6.5,15.8-15.6h0Z" style="fill:#fff; stroke-width:0px;"/><path d="m618.9,31.6h10.8l25.2,33.5V31.6h10.8v49.6h-10.6l-25.2-33.5v33.5h-10.9V31.6Z" style="fill:#fff; stroke-width:0px;"/><polygon points="137.9 31.2 87 119.4 69 88.2 101.9 31.2 137.9 31.2" style="fill:#fff; stroke-width:0px;"/><polygon points="119.9 0 101.9 31.2 36.1 31.2 18 0 119.9 0" style="fill:#fff; stroke-width:0px;"/><polygon points="69 88.2 51 119.4 0 31.2 36.1 31.2 69 88.2" style="fill:#fff; stroke-width:0px;"/><path d="m206.3,117.9h-3.2l-4.4-5h-2.9v5h-2.8v-15c2.4,0,4.8,0,7.1,0,3.5,0,5.4,2.4,5.4,5s-.9,4.1-3.8,4.7l4.5,5.1v.2Zm-10.5-12.4v4.8h4.3c1.8,0,2.6-1.2,2.6-2.4s-.8-2.4-2.6-2.4h-4.3Z" style="fill:#fff; stroke-width:0px;"/><path d="m237,117.9h-11.2v-15h11.2v2.7h-8.4v3.5h8.1v2.6h-8.1v3.4h8.4v2.8Z" style="fill:#fff; stroke-width:0px;"/><path d="m267.6,115.1h-7.8l-1.3,2.8h-3.1l6.7-15h3.1l6.7,15h-3.1l-1.3-2.8Zm-3.9-9l-2.8,6.4h5.6l-2.8-6.4Z" style="fill:#fff; stroke-width:0px;"/><path d="m293.8,102.9v12.4h7.7v2.6h-10.5v-15h2.8Z" style="fill:#fff; stroke-width:0px;"/><path d="m320.8,117.9v-15h2.8v15h-2.8Z" style="fill:#fff; stroke-width:0px;"/><path d="m357.8,110.3c0,3.8-2.3,7.6-7.5,7.6h-5.9v-15h5.9c5.1,0,7.4,3.7,7.5,7.4Zm-10.6,4.9h3.1c3.4,0,4.8-2.5,4.7-4.9,0-2.3-1.4-4.7-4.7-4.7h-3.1v9.6Z" style="fill:#fff; stroke-width:0px;"/><path d="m387.5,115.1h-7.8l-1.3,2.8h-3.1l6.7-15h3.1l6.7,15h-3.1l-1.3-2.8Zm-3.9-9l-2.8,6.4h5.6l-2.8-6.4Z" style="fill:#fff; stroke-width:0px;"/><path d="m424.3,110.3c0,3.8-2.3,7.6-7.5,7.6h-5.9v-15h5.9c5.1,0,7.4,3.7,7.5,7.4Zm-10.6,4.9h3.1c3.4,0,4.8-2.5,4.7-4.9,0-2.3-1.4-4.7-4.7-4.7h-3.1v9.6Z" style="fill:#fff; stroke-width:0px;"/><path d="m473.3,118h-2.9l-6.2-15.1h3.2l4.5,11.7,4.5-11.7h3.2l-6.2,15.1Z" style="fill:#fff; stroke-width:0px;"/><path d="m498.6,117.9v-15h2.8v15h-2.8Z" style="fill:#fff; stroke-width:0px;"/><path d="m535.4,117.9h-3.2l-4.4-5h-2.9v5h-2.8v-15c2.4,0,4.8,0,7.1,0,3.5,0,5.4,2.4,5.4,5s-.9,4.1-3.8,4.7l4.5,5.1v.2Zm-10.5-12.4v4.8h4.3c1.8,0,2.6-1.2,2.6-2.4s-.8-2.4-2.6-2.4h-4.3Z" style="fill:#fff; stroke-width:0px;"/><path d="m558,105.5h-4.8v-2.6h12.4v2.6h-4.8v12.4h-2.8v-12.4Z" style="fill:#fff; stroke-width:0px;"/><path d="m597.8,102.9v8.6c0,4.4-2.7,6.7-6.5,6.7s-6.7-2.2-6.7-6.7v-8.6h2.8v8.6c0,2.7,1.5,4.1,3.9,4.1s3.7-1.6,3.7-4.1v-8.6h2.8Z" style="fill:#fff; stroke-width:0px;"/><path d="m628.3,115.1h-7.8l-1.3,2.8h-3.1l6.7-15h3.1l6.7,15h-3.1l-1.3-2.8Zm-3.9-9l-2.8,6.4h5.6l-2.8-6.4Z" style="fill:#fff; stroke-width:0px;"/><path d="m654.5,102.9v12.4h7.7v2.6h-10.5v-15h2.8Z" style="fill:#fff; stroke-width:0px;"/></g></svg>