<?xml version="1.0" encoding="UTF-8"?><svg id="b" xmlns="http://www.w3.org/2000/svg" viewBox="0 0 96.7 97.6"><g id="c"><line x1="2.5" y1="37" x2="94.2" y2="37" style="fill:none; stroke:#f4f4f4; stroke-linecap:round; stroke-linejoin:round; stroke-width:4.6px;"/><line x1="22.6" y1="2.3" x2="22.6" y2="22.9" style="fill:none; stroke:#f4f4f4; stroke-linecap:round; stroke-linejoin:round; stroke-width:4.6px;"/><line x1="68.9" y1="2.3" x2="68.9" y2="22.9" style="fill:none; stroke:#f4f4f4; stroke-linecap:round; stroke-linejoin:round; stroke-width:4.6px;"/><line x1="45.8" y1="2.3" x2="45.8" y2="22.9" style="fill:none; stroke:#f4f4f4; stroke-linecap:round; stroke-linejoin:round; stroke-width:4.6px;"/><polyline points="24 53 42.3 53 42.3 66.1 26.2 66.1 26.2 79.1 44.7 79.1" style="fill:none; stroke:#f4f4f4; stroke-linecap:round; stroke-linejoin:round; stroke-width:4.6px;"/><polyline points="51.7 53 69.5 53 69.5 79.1 51.7 79.1" style="fill:none; stroke:#f4f4f4; stroke-linecap:round; stroke-linejoin:round; stroke-width:4.6px;"/><line x1="51.7" y1="66.1" x2="69.4" y2="66.1" style="fill:none; stroke:#f4f4f4; stroke-linecap:round; stroke-linejoin:round; stroke-width:4.6px;"/><path d="m78.3,11.9h7.3c4.9,0,8.8,4,8.8,8.8v65.7c0,4.9-4,8.8-8.8,8.8H11.2c-4.9,0-8.8-4-8.8-8.8V20.7c0-4.9,4-8.8,8.8-8.8h11.3" style="fill:none; stroke:#f4f4f4; stroke-linecap:round; stroke-linejoin:round; stroke-width:4.6px;"/><line x1="55.2" y1="11.9" x2="68.7" y2="11.9" style="fill:none; stroke:#f4f4f4; stroke-linecap:round; stroke-linejoin:round; stroke-width:4.6px;"/><line x1="32" y1="11.9" x2="45.7" y2="11.9" style="fill:none; stroke:#f4f4f4; stroke-linecap:round; stroke-linejoin:round; stroke-width:4.6px;"/></g></svg>