<?xml version="1.0" encoding="UTF-8"?><svg id="b" xmlns="http://www.w3.org/2000/svg" viewBox="0 0 110.7 110.7"><g id="c"><path d="m55.4,109.6C25.4,109.6,1.1,85.3,1.1,55.4S25.4,1.1,55.4,1.1s54.3,24.3,54.3,54.3-24.3,54.3-54.3,54.3Zm0-103.8C28,5.8,5.8,28,5.8,55.4s5.2,25.5,14.6,34.9c9.4,9.4,21.8,14.6,34.9,14.6,27.3,0,49.5-22.2,49.5-49.5S82.7,5.8,55.4,5.8Zm0,76.1c-13.4,0-25.4-4.1-31.4-10.7l-.8-.8-3.1,3.1-3.3-3.2,8.8-8.8,3.3,3.2-2.4,2.4.6.8c3.6,4.7,13.8,9.4,28.2,9.4s24.7-4.9,28.2-9.7l.5-.7-1.9-2,3.2-3.2,8.8,8.8-3.2,3.2-3.1-3-.8.8c-6.4,6.6-18.5,10.7-31.8,10.7Zm21.7-34.6c-.5-2.1-2.2-3.5-4.4-3.5s-3.8,1.6-4.4,3.5h-4.8c.5-4.8,4.2-8.2,9.2-8.2s8.7,3.4,9.2,8.2h-4.8Zm-34.6,0c-.5-2.1-2.2-3.5-4.4-3.5s-3.9,1.6-4.4,3.5h-4.8c.5-4.8,4.2-8.2,9.2-8.2s8.7,3.4,9.2,8.2h-4.8Z" style="fill:#fff; stroke-width:0px;"/></g></svg>