<?xml version="1.0" encoding="UTF-8"?><svg id="b" xmlns="http://www.w3.org/2000/svg" viewBox="0 0 112.4 105.4"><g id="c"><path d="m93.2,104.3l-20.4-17.6h-1.4v-4.8h3.1l18,15.7v-15.7h5.9c4.5,0,8.1-3.6,8.1-8.1V14.1c0-4.5-3.6-8.1-8.1-8.1h-56.2c-4.1,0-7.5,3.1-8,7h-4.9c.2-3.1,1.4-5.8,3.7-8,2.6-2.6,5.7-3.9,9.2-3.9h56.2c3.5,0,6.6,1.3,9.1,3.9,2.6,2.6,3.9,5.6,3.9,9.1v59.7c0,3.6-1.3,6.7-3.9,9.2-2.5,2.5-5.5,3.7-9.1,3.7h-1.1v17.6h-4.1Zm-78,0v-17.6h-1.1c-3.6,0-6.7-1.3-9.2-3.7-2.5-2.5-3.7-5.6-3.7-9.2v-38.6c0-3.6,1.2-6.6,3.7-9.1,2.6-2.6,5.7-3.9,9.2-3.9h35.1c3.5,0,6.6,1.3,9.1,3.9s3.9,5.6,3.9,9.1v38.6c0,3.6-1.3,6.7-3.9,9.2-2.5,2.5-5.5,3.7-9.1,3.7h-9.2l-20.4,17.6h-4.4Zm4.8-6.7l18-15.7h11.2c4.5,0,8.1-3.6,8.1-8.1v-38.6c0-4.5-3.6-8.1-8.1-8.1H14.1c-4.5,0-8.1,3.6-8.1,8.1v38.6c0,4.5,3.6,8.1,8.1,8.1h5.9v15.7Z" style="fill:#fff; stroke-width:0px;"/></g></svg>