<?xml version="1.0" encoding="UTF-8"?><svg id="b" xmlns="http://www.w3.org/2000/svg" viewBox="0 0 124.8 111.1"><g id="c"><path d="m105,64.6c0,.8-.7,1.5-1.5,1.5s-1.5-.7-1.5-1.5.7-1.5,1.5-1.5,1.5.7,1.5,1.5Z" style="fill:none; stroke:#f4f4f4; stroke-linecap:round; stroke-linejoin:round; stroke-width:4.6px;"/><path d="m86.7,64.6c0,.8-.7,1.5-1.5,1.5s-1.5-.7-1.5-1.5.7-1.5,1.5-1.5,1.5.7,1.5,1.5Z" style="fill:none; stroke:#f4f4f4; stroke-linecap:round; stroke-linejoin:round; stroke-width:4.6px;"/><circle cx="94.3" cy="73.8" r="1.5" style="fill:none; stroke:#f4f4f4; stroke-linecap:round; stroke-linejoin:round; stroke-width:4.6px;"/><path d="m94.3,57c-.8,0-1.5-.7-1.5-1.5s.7-1.5,1.5-1.5,1.5.7,1.5,1.5-.7,1.5-1.5,1.5Z" style="fill:none; stroke:#f4f4f4; stroke-linecap:round; stroke-linejoin:round; stroke-width:4.6px;"/><line x1="17.8" y1="65.9" x2="40" y2="65.9" style="fill:none; stroke:#f4f4f4; stroke-linecap:round; stroke-linejoin:round; stroke-width:4.6px;"/><line x1="28.9" y1="54.8" x2="28.9" y2="77" style="fill:none; stroke:#f4f4f4; stroke-linecap:round; stroke-linejoin:round; stroke-width:4.6px;"/><path d="m62.5,2.3s17.9,11.3,6.7,22.5c-5.4,5.4-7.9,6.6-7.9,15.6" style="fill:none; stroke:#f4f4f4; stroke-linecap:round; stroke-linejoin:round; stroke-width:4.6px;"/><path d="m110.3,44.3c-1.2-2.5-5.9-4.1-13.2-4.1s-7.8.5-7.8.5c-8.1.5-10.8,8.2-10.9,8.2l-.6,1.7h-30.8l-.6-1.7c0,0-2.7-7.8-10.9-8.2,0,0-3.6-.5-7.8-.5-7.3,0-12,1.6-13.2,4.1-.7,1.3-13.3,21.5-12.2,57.1,0,.3.7,7.4,7.2,7.4s3.4-.4,5.4-1.1c3.1-1.1,17.3-12.9,18.1-13.6.8-.7,10.6-9,16.2-9h26.4c5.6,0,15.5,8.3,16.2,9,.8.7,14.9,12.6,18.1,13.6,2,.8,3.8,1.1,5.4,1.1,6.4,0,7.1-7.1,7.2-7.4,1.2-35.6-11.5-55.7-12.2-57.1Z" style="fill:none; stroke:#f4f4f4; stroke-linecap:round; stroke-linejoin:round; stroke-width:4.6px;"/></g></svg>