<?xml version="1.0" encoding="UTF-8"?><svg id="b" xmlns="http://www.w3.org/2000/svg" viewBox="0 0 150.3 99.4"><g id="c"><path d="m128.3,89.3l-3.1-26.5c-1.8-9.3-9.2-9.4-9.2-9.4l-22.5.7-4.2-21.4c-.6-3.1-3.9-5.1-7.1-4.5-3.1.6-5.4,3.7-4.8,6.9l5.5,28,2.7,13.6-12.5-8.3c-2.6-1.8-6.3-1.1-8.1,1.5l-.5.7c-1.8,2.6-1.1,6.3,1.5,8.1l27.4,18.4" style="fill:none; stroke:#f4f4f4; stroke-linecap:round; stroke-linejoin:round; stroke-width:4.6px;"/><polygon points="23.4 2.3 29.5 16.1 44.5 17.6 33.3 27.7 36.5 42.4 23.4 34.9 10.4 42.4 13.5 27.7 2.3 17.6 17.3 16.1 23.4 2.3" style="fill:none; stroke:#f4f4f4; stroke-linecap:round; stroke-linejoin:round; stroke-width:4.6px;"/><polyline points="70.3 37.7 62.1 42.4 65.2 27.7 54.1 17.6 69 16.1 75.1 2.3 81.3 16.1 96.2 17.6 90.2 23.1" style="fill:none; stroke:#f4f4f4; stroke-linejoin:round; stroke-width:4.6px;"/><polygon points="126.9 2.3 133 16.1 148 17.6 136.8 27.7 139.9 42.4 126.9 34.9 113.8 42.4 117 27.7 105.8 17.6 120.7 16.1 126.9 2.3" style="fill:none; stroke:#f4f4f4; stroke-linecap:round; stroke-linejoin:round; stroke-width:4.6px;"/></g></svg>