<?xml version="1.0" encoding="UTF-8"?><svg id="b" xmlns="http://www.w3.org/2000/svg" viewBox="0 0 121.5 121.7"><g id="c"><path d="m10.2,120.6c-1.9,0-4.5-.4-6.5-2.4-6.2-5.8-1.3-19.6,15-42.2l.3-.5-.2-.5c-3.3-9.2-3.3-19.8,0-29,6-17.9,23.1-30,42.6-30s9.6.8,14.2,2.3l.5.2.5-.3C92,6.8,103.7,1.1,111.3,1.1s5,.8,6.6,2.4c6.2,6.2.7,21.8-14.6,41.8l-.4.5.2.6c3.4,9.3,3.4,19.7,0,29.2-6.1,18-23,30.1-42,30.1s-10-.9-14.7-2.6l-.5-.2-.5.3c-8.7,6.5-24.9,17.4-35.2,17.4Zm10.2-37.8c-6.9,9.6-11.2,17-12.7,22-1.8,6.7-1.6,8.6-.7,9.5.7.7,1.8,1,3.2,1,5.6,0,16.2-5.3,28.5-14.3l1.4-1-1.5-.8c-7.1-4-12.9-9.8-16.4-16.4l-.8-1.6-1,1.4Zm41.4,7c-1.5,1.3-3.9,3.4-6.7,5.7l-3.8,3.2,2.4.4c2.3.4,4.9.7,7.4.7,10.8,0,20.5-3.9,27.9-11.4,9.3-9.7,13.4-22.9,10.9-35.4l-.4-2.2-1.5,1.7c-4.8,5.6-10.4,11.9-16.8,18.7l-1.7,1.8h7.2v5.6h-16.9v-17h5.4v7.8l1.9-1.9c6.6-6.9,13.2-14.4,19.6-22.4l.4-.5-.3-.6c-3.9-8.6-10.6-15.3-19.4-19.3-5.3-2.4-10.9-3.7-16.7-3.7-15.3,0-29.3,9-35.6,22.9-9,20.4-.5,43.4,19.4,52.3l.6.3.5-.4c.8-.6,1.5-1.2,2.3-1.8,3.3-2.6,6.7-5.3,10.3-8.5l3.6,4.1ZM111.5,6.9c-1.5,0-3.7.4-6.7,1.3-5,1.5-12,5.4-21.5,12.1l-1.4,1,1.5.9c7.2,4.1,12.7,9.7,16.4,16.4l.8,1.6,1-1.4c10.7-15.3,15.8-27.9,12.5-30.8-.5-.6-1.4-.9-2.6-.9Z" style="fill:#fff; stroke-width:0px;"/></g></svg>