<?xml version="1.0" encoding="UTF-8"?><svg id="b" xmlns="http://www.w3.org/2000/svg" viewBox="0 0 106 129.7"><g id="c"><rect x="9.7" y="58.7" width="93.9" height="15.8" style="fill:none; stroke:#f4f4f4; stroke-linecap:round; stroke-linejoin:round; stroke-width:4.6px;"/><path d="m103.6,83.5v38.1c0,3.2-2.6,5.8-5.8,5.8H15.5c-3.2,0-5.8-2.6-5.8-5.8v-38.1" style="fill:none; stroke:#f4f4f4; stroke-linecap:round; stroke-linejoin:round; stroke-width:4.6px;"/><rect x="1.6" y="21" width="93.9" height="17" transform="translate(-7.9 22.8) rotate(-24.5)" style="fill:none; stroke:#f4f4f4; stroke-linecap:round; stroke-linejoin:round; stroke-width:4.6px;"/><line x1="26.6" y1="93.5" x2="86.7" y2="93.5" style="fill:none; stroke:#f4f4f4; stroke-linecap:round; stroke-linejoin:round; stroke-width:4.6px;"/><line x1="26.6" y1="108.5" x2="86.7" y2="108.5" style="fill:none; stroke:#f4f4f4; stroke-linecap:round; stroke-linejoin:round; stroke-width:4.6px;"/><line x1="24.2" y1="58.4" x2="36.2" y2="74.8" style="fill:none; stroke:#f4f4f4; stroke-linecap:round; stroke-linejoin:round; stroke-width:4.6px;"/><line x1="49.5" y1="58.4" x2="61.5" y2="74.8" style="fill:none; stroke:#f4f4f4; stroke-linecap:round; stroke-linejoin:round; stroke-width:4.6px;"/><line x1="74.7" y1="58.4" x2="86.7" y2="74.8" style="fill:none; stroke:#f4f4f4; stroke-linecap:round; stroke-linejoin:round; stroke-width:4.6px;"/><line x1="74" y1="8.7" x2="70.1" y2="29" style="fill:none; stroke:#f4f4f4; stroke-linecap:round; stroke-linejoin:round; stroke-width:4.6px;"/><line x1="49.9" y1="19.3" x2="46.2" y2="38.7" style="fill:none; stroke:#f4f4f4; stroke-linecap:round; stroke-linejoin:round; stroke-width:4.6px;"/><line x1="25.5" y1="31.4" x2="21.8" y2="50.5" style="fill:none; stroke:#f4f4f4; stroke-linecap:round; stroke-linejoin:round; stroke-width:4.6px;"/></g></svg>