<?xml version="1.0" encoding="UTF-8"?><svg id="b" xmlns="http://www.w3.org/2000/svg" viewBox="0 0 119 119"><g id="c"><path d="m1.5,117.5v-20.7l16.8-20.7c3-3,7.2-4.7,11.2-4.7h41v6.1c0,2.7-.5,4.8-1.7,6.6l-1.5,2.2h10.5l20.7-9.4c2.4-1.3,5-1.9,7.6-1.9,3.8,0,7.4,1.4,10.2,3.9h0s0,0,0,0c.2.1.3.3.5.5.1.1.2.2.3.4.9,1.5.4,3.5-1.1,4.5l-34.4,21.1-61.2,12.2H1.5Zm28-41.2c-3.3,0-5.7.9-7.7,3h0c0,.1-15.6,19.2-15.6,19.2v14.3h13.9l60.6-11.3,32.5-19.9-2.7-1.1c-1.2-.5-2.4-.7-3.7-.7-1.9,0-3.8.5-5.3,1.6l-22,9.8h-36.9v-4.5h14.5c5.1,0,9.3-4.1,9.3-8.9v-1.5H29.4Zm-3.8-18.7c-2.4,0-4.8-1.8-4.8-4.8V6.4c0-2.5,2.3-4.9,4.8-4.9h68.1c1.5,0,2.9.6,3.9,1.7.8.9,1.1,2,1,3h0v46.7c0,2.5-2.3,4.8-4.8,4.8H25.6Zm-.3-4.5h69.2v-29H25.3v29Zm0-33.5h69.2V6H25.3v13.7Zm9.6,23.2v-4.5h11.9v4.5h-11.9Z" style="fill:#fff; stroke-width:0px;"/></g></svg>