<?xml version="1.0" encoding="UTF-8"?><svg id="b" xmlns="http://www.w3.org/2000/svg" viewBox="0 0 105.3 125.5"><g id="c"><polyline points="53.8 54.3 53.8 34.5 47 39.9" style="fill:none; stroke:#f4f4f4; stroke-linecap:round; stroke-linejoin:round; stroke-width:4.6px;"/><path d="m50.4,3.1c1.7-1.1,4.5-1,6.2.2l6.3,4.4c1.7,1.2,4.7,2.4,6.8,2.7l7.6,1c2,.3,4.1,2.1,4.7,4.1l1.9,7.4c.5,2,2.1,4.9,3.5,6.4l5.2,5.7c1.4,1.5,1.8,4.3.9,6.2l-3.3,6.9c-.9,1.9-1.5,5.1-1.4,7.1l.3,7.7c0,2.1-1.4,4.5-3.2,5.3l-7,3.2c-1.9.9-4.4,2.9-5.7,4.5l-4.7,6.1c-1.3,1.6-3.9,2.5-5.9,2l-7.4-2c-2-.5-5.3-.6-7.3-.2l-7.5,1.7c-2,.4-4.6-.6-5.8-2.3l-4.4-6.3c-1.2-1.7-3.6-3.9-5.5-4.8l-6.8-3.5c-1.8-1-3.2-3.4-3-5.5l.7-7.6c.2-2.1-.3-5.3-1.1-7.2l-2.9-7.1c-.8-1.9-.2-4.6,1.2-6.1l5.5-5.4c1.5-1.4,3.2-4.2,3.8-6.2l2.3-7.3c.6-2,2.8-3.7,4.9-3.9l7.6-.6c2.1-.2,5.2-1.2,6.9-2.3l6.5-4.1Z" style="fill:none; stroke:#f4f4f4; stroke-linecap:round; stroke-linejoin:round; stroke-width:4.6px;"/><polyline points="42.4 92.8 27.3 123.2 22.1 102.1 2.3 110.9 18.6 77.6" style="fill:none; stroke:#f4f4f4; stroke-linecap:round; stroke-linejoin:round; stroke-width:4.6px;"/><polyline points="62.9 92.8 78 123.2 83.2 102.1 103 110.9 86.7 77.6" style="fill:none; stroke:#f4f4f4; stroke-linecap:round; stroke-linejoin:round; stroke-width:4.6px;"/><path d="m52.6,18.8c13.7,0,24.8,11.1,24.8,24.8s-11.1,24.8-24.8,24.8-24.8-11.1-24.8-24.8,11.1-24.8,24.8-24.8Z" style="fill:none; stroke:#f4f4f4; stroke-linecap:round; stroke-linejoin:round; stroke-width:4.6px;"/></g></svg>