<?xml version="1.0" encoding="UTF-8"?><svg id="b" xmlns="http://www.w3.org/2000/svg" viewBox="0 0 171.8 55.5"><g id="c"><path d="m9.5,48c.5,0,.9-.4.9-.9s-.4-.9-.9-.9-.9.4-.9.9.4.9.9.9" style="fill:#fff; stroke-width:0px;"/><path d="m82.4,55.4c.5,0,.9-.4.9-.9s-.4-.9-.9-.9-.9.4-.9.9.4.9.9.9" style="fill:#fff; stroke-width:0px;"/><path d="m37.8,49.7h0c0-1.1-.4-2-1-2.6h0s0,0,0,0h0c-.6-.5-1.5-.8-2.5-.8,0,0,0,0,0,0s0,0,0,0h0s0,0,0,0c0,0,0,0,0,0h0s0,0,0,0h0s0,0,0,0c0,0,0,0,0,0-1,0-1.8.3-2.5.8h0c-.7.7-1,1.5-1,2.6h0s0,0,0,0v5.4c0,0,0,.1,0,.2,0,0,.1,0,.2,0h1c0,0,.2,0,.2,0,0,0,0-.1,0-.2v-5.3c0-.8.2-1.3.6-1.7.3-.3.9-.5,1.6-.6.7,0,1.2.2,1.6.6.4.4.6.9.6,1.7v5.3c0,0,0,.1,0,.2,0,0,.1,0,.2,0h1c0,0,.2,0,.2,0,0,0,0-.1,0-.2v-5.4Z" style="fill:#fff; stroke-width:0px;"/><path d="m71.6,49.7h0c0-1.1-.4-2-1-2.6h0s0,0,0,0h0c-.6-.5-1.5-.8-2.5-.8,0,0,0,0,0,0s0,0,0,0h0s0,0,0,0c0,0,0,0,0,0h0s0,0,0,0h0s0,0,0,0c0,0,0,0,0,0-1,0-1.8.3-2.5.8h0c-.7.7-1,1.5-1,2.6h0s0,0,0,0v5.4c0,0,0,.1,0,.2,0,0,.1,0,.2,0h1c0,0,.2,0,.2,0,0,0,0-.1,0-.2v-5.3c0-.8.2-1.3.6-1.7.3-.3.9-.5,1.6-.6.7,0,1.2.2,1.6.6.4.4.6.9.6,1.7v5.3c0,0,0,.1,0,.2,0,0,.1,0,.2,0h1c0,0,.2,0,.2,0,0,0,0-.1,0-.2v-5.4Z" style="fill:#fff; stroke-width:0px;"/><path d="m53.5,50.8h0c0,.9,0,1.8-.4,2.4-.3.6-.8,1-1.9,1,0,0,0,0,0,0h0c-1,0-1.5-.4-1.9-1-.3-.6-.4-1.5-.4-2.3h0c0-.9,0-1.6.4-2.2.3-.6.9-1,1.9-1h0c1,0,1.5.4,1.9,1,.3.6.4,1.3.4,2.2h0Zm.3-3.7s0,0,0,0c-.6-.5-1.4-.8-2.5-.8,0,0,0,0,0,0-.8,0-1.7.2-2.4.8h0s0-.5,0-.5h0v-2.7c0,0,0-.1,0-.2,0,0-.1,0-.2,0h-1c0,0-.2,0-.2,0,0,0,0,.1,0,.2v2.7h0v5.8h0v2.7c0,0,0,.1,0,.2,0,0,.1,0,.2,0h1c0,0,.2,0,.2,0,0,0,0-.1,0-.2v-.6c.6.7,1.6,1,2.4,1h0c1,0,1.9-.3,2.5-.8,1-1,1.3-2.5,1.3-3.9,0-1.4-.2-2.7-1.2-3.7" style="fill:#fff; stroke-width:0px;"/><path d="m27.7,52.1c0,.7-.2,1.1-.4,1.3-.5.5-1.2.5-1.9.5h0c-.7,0-1.2-.1-1.5-.3-.3-.2-.4-.5-.4-.9h0c0-.5.1-.8.4-1,.3-.2.8-.4,1.5-.4h2.4v.7Zm1.6-2.8h0c0-.9-.3-1.7-1-2.2-.6-.5-1.6-.8-2.8-.8h0c-1.3,0-2.3.3-3,1.1h0s0,0,0,0c0,0-.1.1-.2.2,0,0,0,0,0,0h0c0,.1,0,.2,0,.3,0,0,0,.1.1.2h0c0,0,0,0,0,0h.2c0,.1.5.5.5.5,0,0,.1,0,.2,0,0,0,.1,0,.2,0l.3-.3h0c.2-.2.4-.3.6-.4.3-.1.7-.2,1.3-.2h0c.8,0,1.4.2,1.7.4.3.3.4.6.5,1.3,0,0,0,0,0,0v.6h-2.5c-1,0-1.8.2-2.4.7-.6.5-.9,1.2-.9,2h0c0,.7.3,1.4.7,1.9.6.6,1.5.9,2.8.9h.7c1.2,0,2-.3,2.6-.9.5-.6.8-1.4.8-2.5v-2.7h0Z" style="fill:#fff; stroke-width:0px;"/><path d="m57.2,52.7h0c0-.5.1-.8.4-1,.3-.2.8-.4,1.5-.4h2.4v.7c0,.7-.2,1.1-.4,1.3-.5.5-1.2.5-1.9.5h0c-.8,0-1.2-.1-1.5-.3-.3-.2-.4-.5-.4-.9m5.9-3.4h0c0-.9-.3-1.7-1-2.2-.6-.5-1.6-.8-2.8-.8h0c-1.3,0-2.3.3-3,1.1h0s0,0,0,0c0,0-.1.1-.2.2h0s0,0,0,0c0,0,0,.1,0,.2,0,0,0,.1.1.2h0c0,0,0,0,0,0h.2c0,.1.5.5.5.5,0,0,.1,0,.2,0,0,0,.1,0,.2,0l.3-.3h0c.2-.2.4-.3.6-.4.3-.1.7-.2,1.3-.2h0s0,0,0,0c.8,0,1.4.2,1.7.4.3.3.4.6.5,1.3,0,0,0,0,0,0v.6h-2.5c-1,0-1.8.2-2.4.7-.6.5-.9,1.2-.9,2h0c0,.7.3,1.4.7,1.9.6.6,1.5.9,2.8.9h.7c1.2,0,2-.3,2.6-.9.5-.6.8-1.4.8-2.5v-2.7h0Z" style="fill:#fff; stroke-width:0px;"/><path d="m14.4,46.3h-1.6v-1.7h0v-.8c0-.1-.1-.3-.3-.3h-1c0,0-.1,0-.2,0,0,0,0,.1,0,.2v1.5h0v7.8c0,.6.2,1.2.6,1.6.4.4,1,.7,1.7.7h.5s.4,0,.4,0c0,0,.1,0,.2,0,0,0,0-.1,0-.2v-1c0,0,0-.2,0-.2,0,0-.1,0-.2,0h-.8c-.2,0-.3,0-.4,0,0,0-.1,0-.2,0,0,0,0,0-.1,0-.1-.2-.2-.4-.2-.8v-5h1.6c0,0,.1,0,.2,0,0,0,0-.1,0-.2v-1c0,0,0-.2,0-.2,0,0-.1,0-.2,0" style="fill:#fff; stroke-width:0px;"/><path d="m21.5,47.4h0c0-.1,0-.1,0-.1h0c0,0,0,0,0,0h0c0,0,0-.1,0-.1h0c-.6-.6-1.2-.8-2-.8,0,0,0,0,0,0-.5,0-1.1.2-1.5.7l-.3.3h0v-.7c0,0,0-.1,0-.2,0,0-.1,0-.2,0h-1c0,0-.2,0-.2,0,0,0,0,.1,0,.2v8.6c0,0,0,.1,0,.2,0,0,.1,0,.2,0h.2s0,0,0,0h.6s0,0,0,0h.2c0,0,.2,0,.2,0,0,0,0-.1,0-.2h0c0-.2,0-.2,0-.2v-5.1s0,0,0,0v-.4c0-.5.2-.9.4-1.2.3-.3.6-.5,1.2-.5.3,0,.5,0,.6,0,.2,0,.3.2.5.4h0s.2.3.2.3c0,0,.1,0,.2,0,0,0,.2,0,.2,0l.7-.7c0,0,0-.1,0-.2,0,0,0-.1,0-.2" style="fill:#fff; stroke-width:0px;"/><path d="m45.5,50.7s0,0,0,0h0c-.6-.4-1.3-.5-2-.6h-1.4c-.6-.2-1-.3-1.2-.5-.2-.1-.3-.4-.3-.7h0s0,0,0,0h0c0-.4.2-.7.4-.9.3-.2.8-.4,1.5-.4h0c.9,0,1.6.2,2.2.6h0s.4.3.4.3c0,0,.1,0,.2,0,0,0,.1,0,.2-.1l.5-.8c0,0,0-.1,0-.2,0,0,0,0,0-.1,0,0,0,0,0,0h0c-.8-.6-2-1-3.3-1-1,0-1.9.2-2.5.7-.6.5-1,1.2-1,2h0s0,0,0,0c0,.7.3,1.3.8,1.8.5.4,1.3.7,2.2.7h1.5c.5.2.9.3,1.1.5.2.1.3.4.3.7h0c0,.5-.2.8-.5,1-.4.2-.9.4-1.8.4h0s0,0,0,0h0c-1.1,0-1.8-.2-2.4-.7l-.3-.3c0,0-.1,0-.2,0,0,0-.1,0-.2.1l-.6.7c0,0,0,.1,0,.2,0,0,0,.1,0,.2l.3.2h0s0,0,0,0h0s0,0,0,0c.9.7,2,1,3.4,1h0c1.1,0,2.1-.2,2.8-.7.7-.5,1.1-1.2,1.1-2.1h0c0-.9-.3-1.5-.9-1.9" style="fill:#fff; stroke-width:0px;"/><path d="m80.6,55l-1.2-1.7-2.4-3.5,1.9-2,1.1-1.1h0c.1-.2,0-.3,0-.4,0,0-.1,0-.2,0h-1.2c0,0-.2,0-.2.1,0,0,0,0,0,0l-4.2,4.5v-7c0,0,0-.1,0-.2,0,0-.1,0-.2,0h-1c0,0-.2,0-.2,0,0,0,0,.1,0,.2v11.3c0,0,0,.1,0,.2,0,0,.1,0,.2,0h1c0,0,.2,0,.2,0,0,0,0-.1,0-.2v-2.3l1.8-2,1.2,1.8h0l1.7,2.6c0,0,.1.1.2.1h1.2c0,0,.2,0,.2,0,0,0,0-.2,0-.3" style="fill:#fff; stroke-width:0px;"/><path d="m69.9,43.6h.2l.3.7.3-.7h.2v.9h-.1v-.5s0,0,0,0,0,0,0-.1l-.3.7h-.1l-.2-.7h0c0,.2,0,.2,0,.2v.5h-.1v-.9Z" style="fill:#fff; stroke-width:0px;"/><path d="m71.7,44c0,0,0,0,.1,0,0,0,0,0,0-.1s0-.1,0-.1c0,0,0,0,0,0h-.3v.3h.3Zm-.4-.4h.4c0,0,.1,0,.2,0,0,0,.1.1.1.2s0,0,0,.1c0,0,0,0,0,0,0,0,0,0,0,0,0,0,0,0,0,.1h0c0,.1,0,.2,0,.2,0,0,0,0,0,0h0s-.1,0-.1,0c0,0,0,0,0,0,0,0,0,0,0,0h0c0-.2,0-.2,0-.3,0,0,0,0-.1,0h-.3v.4h-.1v-.9Z" style="fill:#fff; stroke-width:0px;"/><path d="m71,44.5s0,0,0,0,0,0,0,0,0,0,0,0,0,0,0,0" style="fill:#fff; stroke-width:0px;"/><path d="m72.2,44.5s0,0,0,0,0,0,0,0,0,0,0,0,0,0,0,0h0Z" style="fill:#fff; stroke-width:0px;"/><path d="m90.8,21.8h0c0,2.7-.3,5.2-1.3,7.1-1,1.7-2.5,2.9-5.5,3,0,0,0,0-.1,0h0c-3,0-4.6-1.2-5.6-3-1-1.8-1.3-4.4-1.3-7v-.2c0-2.6.3-4.7,1.3-6.5,1-1.8,2.5-2.9,5.6-3h.1c3,0,4.6,1.2,5.6,3,1,1.8,1.3,3.9,1.3,6.5h0Zm.9-11s0,0,0,0c-1.6-1.5-4.3-2.5-7.3-2.5,0,0-.1,0-.2,0-2.5,0-5,.5-7.1,2.4h0s0-1.6,0-1.6h0V.8c0-.2,0-.4-.3-.6C76.5,0,76.3,0,76.1,0h-2.9c-.2,0-.5,0-.6.2-.2.2-.3.4-.3.6v8.2s0,0,0,0v17.4h0v8.1c0,.2,0,.4.3.6.2.2.4.2.6.2h2.9c.2,0,.5,0,.6-.2.2-.1.3-.4.3-.6v-1.7c1.9,2.1,4.6,2.9,7.1,2.9h.2c3,0,5.7-1,7.3-2.5,3.1-2.9,3.8-7.4,3.8-11.5,0-4.1-.7-8.1-3.7-11" style="fill:#fff; stroke-width:0px;"/><path d="m117,22.3c0,2.6-.3,4.7-1.3,6.5-1,1.8-2.6,2.9-5.6,3h-.1c-3,0-4.6-1.2-5.6-3-1-1.8-1.3-3.9-1.3-6.5v-.2c0-2.6.3-5.2,1.3-7,1-1.8,2.5-2.9,5.6-3h0c0,0,0,0,.1,0,3,0,4.6,1.2,5.5,3,1,1.8,1.3,4.3,1.3,6.9h0v.2Zm.9,10.9c3-2.9,3.7-6.8,3.7-11,0-4.1-.7-8.6-3.8-11.5-1.6-1.5-4.3-2.5-7.3-2.5h-.2c-2.5,0-5.2.7-7.1,2.9v-1.7c0-.2,0-.4-.3-.6-.2-.2-.4-.2-.6-.2h-2.9c-.2,0-.5,0-.6.2-.2.1-.3.4-.3.6v8.1h0v17.4h0v8.2c0,.2,0,.4.3.6.2.2.4.2.6.2h2.9c.2,0,.5,0,.6-.2.2-.2.3-.4.3-.6v-8.2h0v-1.6h0c2.2,1.8,4.6,2.4,7.1,2.4,0,0,.1,0,.2,0,3.1,0,5.7-.9,7.3-2.5,0,0,0,0,0,0" style="fill:#fff; stroke-width:0px;"/><path d="m158.8,37.9c-.3.7-.7,1.8-1,2.4,0,0-.5,1.2-1.3,2-.7.7-1.5,1.2-2.4,1.5-.9.3-1.5.3-1.5.3-.7,0-1.8,0-2.3,0s-1-.6-1-1.3v-1.9c0-.7.3-1.3.7-1.3s1.2,0,2-.1c0,0,.5,0,1-.4.5-.4.8-.9.8-.9.3-.7.7-1.8,1-2.4l.5-1.5c.2-.7.2-1.8,0-2.5l-8-21.8c-.2-.7.1-1.2.9-1.2h2.8c.7,0,1.5.6,1.7,1.2l5.2,15.4c.2.7.6.7.8,0l5.1-15.4c.2-.7,1-1.3,1.7-1.3h2.8c.7,0,1.1.6.9,1.2l-10.3,28.1Z" style="fill:#fff; stroke-width:0px;"/><path d="m128.4,27.5h0c0-1.4.4-2.3,1.2-2.9.8-.6,2.2-1,4.3-1h7v2.2c0,2.1-.5,3.3-1.1,3.9-1.5,1.4-3.4,1.6-5.7,1.6h0c-2.2,0-3.7-.4-4.5-1-.8-.6-1.2-1.4-1.2-2.8m17.3-10h0c0-2.7-.9-5.1-2.8-6.6-1.9-1.6-4.7-2.3-8.2-2.3h-.2c-3.7,0-6.7.8-8.9,3.2h0s-.1.1-.1.1c-.2.2-.3.4-.5.6,0,0,0,0,0,0l-.2.3c-.1.2-.2.4-.2.6,0,.2.1.4.3.6h.1c0,.2.1.2.2.3l.5.4,1.3,1.2c.2.1.4.2.6.2.2,0,.4-.1.6-.3l.9-1h0c.5-.6,1.1-1,1.7-1.3.9-.4,2.1-.6,3.9-.6h0s0,0,0,0c2.5,0,4,.5,4.9,1.3.9.8,1.3,1.9,1.3,3.7,0,0,0,0,0,0v1.7h-7.3c-3,0-5.4.7-7.2,2.1-1.8,1.4-2.8,3.5-2.8,5.9h0c0,2.1.8,4.1,2.2,5.5,1.9,1.8,4.4,2.5,8.2,2.5h2c3.5,0,5.9-.9,7.5-2.6,1.6-1.7,2.2-4.2,2.2-7.3v-8.1h0Z" style="fill:#fff; stroke-width:0px;"/><path d="m42.9,8.6c-.8,0-1.5.6-1.8,1.3l-5,17.6c-.2.7-.6.7-.8,0l-5.8-17.6c-.2-.7-1-1.3-1.8-1.3h-1c-.8,0-1.6.6-1.8,1.3l-5.8,17.6c-.2.7-.6.7-.8,0l-5-17.6c-.2-.7-1-1.3-1.8-1.3h-2.1c-.8,0-1.2.6-1,1.3l7.7,24.3c.2.7,1,1.3,1.8,1.3h1.5c.7,0,1.4-.5,1.6-1.2l5.8-17.2c.2-.7.6-.7.9,0l5.7,17c.2.7,1.1,1.3,1.8,1.3h1.4c.7,0,1.4-.5,1.7-1.2l7.7-24.4c.2-.7-.2-1.3-1-1.3h-2.1Z" style="fill:#fff; stroke-width:0px;"/><path d="m69.1,21.2c0-8-4.2-12.9-11-12.9s-11,5.1-11,13.7,4.2,13.7,11.7,13.7,7.2-1.6,9.8-4.1l.3-.3-3.2-2.9-.3.3c-2.1,2.1-3.8,2.8-6.5,2.8-4.5,0-7-2.8-7.2-8h17.4v-2.2Zm-17.4-1.6c0-1.7.2-2.4.7-3.7.9-2.2,3.1-3.6,5.6-3.6s4.7,1.4,5.6,3.6c.5,1.3.6,2,.7,3.7h-12.7Z" style="fill:#fff; stroke-width:0px;"/><path d="m2.7,14.2c1.5,0,2.7-1.2,2.7-2.8s-1.2-2.8-2.7-2.8-2.7,1.2-2.7,2.8,1.2,2.8,2.7,2.8" style="fill:#d6006d; stroke-width:0px;"/><path d="m169,35.5c1.5,0,2.7-1.2,2.7-2.8s-1.2-2.8-2.7-2.8-2.7,1.2-2.7,2.8,1.2,2.8,2.7,2.8" style="fill:#d6006d; stroke-width:0px;"/></g></svg>